<?xml version="1.0" standalone="no"?>
<!DOCTYPE svg PUBLIC "-//W3C//DTD SVG 20010904//EN"
 "http://www.w3.org/TR/2001/REC-SVG-20010904/DTD/svg10.dtd">
<svg version="1.0" xmlns="http://www.w3.org/2000/svg"
 width="2084.000000pt" height="2084.000000pt" viewBox="0 0 2084.000000 2084.000000"
 preserveAspectRatio="xMidYMid meet">
<metadata>
Created by potrace 1.14, written by Peter Selinger 2001-2017
</metadata>
<g transform="translate(0.000000,2084.000000) scale(0.100000,-0.100000)"
fill="#000000" stroke="none">
<path d="M10400 19970 c0 -29 -4 -40 -15 -40 -12 0 -15 -15 -15 -75 0 -60 -3
-75 -15 -75 -12 0 -15 -19 -15 -110 0 -103 -1 -110 -20 -110 -19 0 -20 -7 -20
-95 0 -78 -3 -95 -15 -95 -12 0 -15 -19 -15 -110 0 -91 -3 -110 -15 -110 -13
0 -15 -30 -15 -210 0 -180 2 -210 15 -210 10 0 15 -11 15 -35 0 -33 -2 -35
-35 -35 -28 0 -35 -4 -35 -20 0 -11 -7 -20 -15 -20 -8 0 -15 -9 -15 -20 0 -13
-7 -20 -20 -20 -11 0 -20 -7 -20 -15 0 -8 -7 -15 -15 -15 -11 0 -15 -11 -15
-40 0 -29 -4 -40 -15 -40 -10 0 -15 -11 -15 -35 0 -28 -4 -35 -20 -35 -19 0
-20 -7 -20 -170 0 -163 1 -170 20 -170 17 0 20 -7 20 -40 0 -29 4 -40 15 -40
10 0 15 -11 15 -35 0 -24 5 -35 15 -35 8 0 15 -9 15 -20 0 -13 7 -20 20 -20
13 0 20 -7 20 -20 0 -11 7 -20 15 -20 8 0 15 -7 15 -15 0 -8 -7 -15 -15 -15
-8 0 -15 -9 -15 -20 0 -13 -7 -20 -20 -20 -17 0 -20 -7 -20 -40 0 -29 -4 -40
-15 -40 -10 0 -15 -11 -15 -35 0 -24 -5 -35 -15 -35 -11 0 -15 -11 -15 -40 0
-33 -3 -40 -20 -40 -18 0 -20 -7 -20 -55 0 -42 -3 -55 -15 -55 -10 0 -15 -11
-15 -35 0 -28 -4 -35 -20 -35 -18 0 -20 -7 -20 -60 0 -47 -3 -60 -15 -60 -10
0 -15 -11 -15 -35 0 -24 -5 -35 -15 -35 -11 0 -15 -11 -15 -40 0 -33 -3 -40
-20 -40 -16 0 -20 -7 -20 -35 0 -24 -5 -35 -15 -35 -11 0 -15 -11 -15 -40 0
-33 -3 -40 -20 -40 -16 0 -20 -7 -20 -35 0 -24 -5 -35 -15 -35 -11 0 -15 -11
-15 -40 0 -29 -4 -40 -15 -40 -10 0 -15 -11 -15 -35 0 -28 -4 -35 -20 -35 -17
0 -20 -7 -20 -40 0 -29 -4 -40 -15 -40 -10 0 -15 -11 -15 -35 0 -28 -4 -35
-20 -35 -17 0 -20 -7 -20 -40 0 -29 -4 -40 -15 -40 -10 0 -15 -11 -15 -35 0
-24 -5 -35 -15 -35 -11 0 -15 -11 -15 -40 0 -33 -3 -40 -20 -40 -16 0 -20 -7
-20 -35 0 -24 -5 -35 -15 -35 -11 0 -15 -11 -15 -40 0 -33 -3 -40 -20 -40 -16
0 -20 -7 -20 -35 0 -24 -5 -35 -15 -35 -11 0 -15 -11 -15 -40 0 -29 -4 -40
-15 -40 -8 0 -15 -7 -15 -15 0 -8 -9 -15 -20 -15 -17 0 -20 -7 -20 -40 0 -29
-4 -40 -15 -40 -10 0 -15 -11 -15 -35 0 -28 -4 -35 -20 -35 -17 0 -20 -7 -20
-40 0 -29 -4 -40 -15 -40 -10 0 -15 -11 -15 -35 0 -24 -5 -35 -15 -35 -11 0
-15 -11 -15 -40 0 -33 -3 -40 -20 -40 -16 0 -20 -7 -20 -35 0 -24 -5 -35 -15
-35 -8 0 -15 -9 -15 -20 0 -13 -7 -20 -20 -20 -13 0 -20 -7 -20 -20 0 -11 -7
-20 -15 -20 -8 0 -15 -9 -15 -20 0 -16 -7 -20 -35 -20 -24 0 -35 -5 -35 -15 0
-11 -12 -15 -50 -15 -43 0 -50 -3 -50 -20 0 -17 -7 -20 -50 -20 -43 0 -50 -3
-50 -20 0 -13 -7 -20 -20 -20 -13 0 -20 -7 -20 -20 0 -11 -7 -20 -15 -20 -10
0 -15 -11 -15 -35 0 -24 -5 -35 -15 -35 -13 0 -15 -57 -15 -450 0 -443 0 -450
-20 -450 -18 0 -20 -7 -20 -75 0 -60 -3 -75 -15 -75 -12 0 -15 -13 -15 -55 0
-48 -2 -55 -20 -55 -18 0 -20 -7 -20 -60 0 -47 -3 -60 -15 -60 -12 0 -15 -13
-15 -55 0 -42 -3 -55 -15 -55 -10 0 -15 -11 -15 -35 0 -28 -4 -35 -20 -35 -17
0 -20 -7 -20 -40 0 -29 -4 -40 -15 -40 -12 0 -15 -13 -15 -55 0 -48 -2 -55
-20 -55 -17 0 -20 -7 -20 -40 0 -29 -4 -40 -15 -40 -10 0 -15 -11 -15 -35 0
-24 -5 -35 -15 -35 -12 0 -15 -13 -15 -55 0 -48 -2 -55 -20 -55 -17 0 -20 -7
-20 -40 0 -29 -4 -40 -15 -40 -10 0 -15 -11 -15 -35 0 -24 -5 -35 -15 -35 -11
0 -15 -11 -15 -40 0 -33 -3 -40 -20 -40 -16 0 -20 -7 -20 -35 0 -24 -5 -35
-15 -35 -8 0 -15 -9 -15 -20 0 -13 -7 -20 -20 -20 -17 0 -20 -7 -20 -40 0 -29
-4 -40 -15 -40 -10 0 -15 -11 -15 -35 0 -24 -5 -35 -15 -35 -11 0 -15 -11 -15
-40 0 -33 -3 -40 -20 -40 -16 0 -20 -7 -20 -35 0 -24 -5 -35 -15 -35 -11 0
-15 -11 -15 -40 0 -33 -3 -40 -20 -40 -16 0 -20 -7 -20 -35 0 -24 -5 -35 -15
-35 -11 0 -15 -11 -15 -40 0 -29 -4 -40 -15 -40 -10 0 -15 -11 -15 -35 0 -28
-4 -35 -20 -35 -17 0 -20 -7 -20 -40 0 -29 -4 -40 -15 -40 -8 0 -15 -7 -15
-15 0 -8 -9 -15 -20 -15 -13 0 -20 -7 -20 -20 0 -11 -7 -20 -15 -20 -8 0 -15
-9 -15 -20 0 -11 -7 -20 -15 -20 -8 0 -15 -9 -15 -20 0 -16 -7 -20 -35 -20
-24 0 -35 -5 -35 -15 0 -10 -11 -15 -35 -15 -28 0 -35 -4 -35 -20 0 -16 -7
-20 -35 -20 -28 0 -35 -4 -35 -20 0 -16 -7 -20 -35 -20 -28 0 -35 -4 -35 -20
0 -11 -7 -20 -15 -20 -8 0 -15 -7 -15 -15 0 -8 -7 -15 -15 -15 -8 0 -15 -9
-15 -20 0 -13 -7 -20 -20 -20 -13 0 -20 -7 -20 -20 0 -11 -7 -20 -15 -20 -10
0 -15 -11 -15 -35 0 -28 -4 -35 -20 -35 -19 0 -20 -7 -20 -95 0 -88 1 -95 20
-95 13 0 20 -7 20 -20 0 -11 7 -20 15 -20 8 0 15 -9 15 -20 0 -16 7 -20 35
-20 24 0 35 -5 35 -15 0 -12 14 -15 70 -15 l70 0 0 -75 c0 -60 3 -75 15 -75
12 0 15 -19 15 -115 0 -96 -3 -115 -15 -115 -12 0 -15 -15 -15 -75 0 -60 3
-75 15 -75 13 0 15 -32 15 -225 0 -193 -2 -225 -15 -225 -8 0 -15 -9 -15 -20
0 -19 -7 -20 -105 -20 -98 0 -105 -1 -105 -20 0 -18 -7 -20 -85 -20 -69 0 -85
-3 -85 -15 0 -10 -11 -15 -35 -15 -28 0 -35 -4 -35 -20 0 -16 -7 -20 -30 -20
-23 0 -30 -4 -30 -20 0 -16 -7 -20 -35 -20 -28 0 -35 -4 -35 -20 0 -13 -7 -20
-20 -20 -11 0 -20 -7 -20 -15 0 -8 -7 -15 -15 -15 -12 0 -15 -17 -15 -95 0
-78 3 -95 15 -95 12 0 15 -13 15 -55 0 -48 2 -55 20 -55 13 0 20 -7 20 -20 0
-11 7 -20 15 -20 11 0 15 -11 15 -40 0 -39 1 -40 35 -40 24 0 35 -5 35 -15 0
-8 7 -15 15 -15 13 0 15 -38 15 -285 0 -278 0 -285 20 -285 20 0 20 -7 20
-615 0 -540 2 -615 15 -615 13 0 15 -23 15 -150 l0 -150 -185 0 c-178 0 -185
-1 -185 -20 0 -18 -7 -20 -70 -20 -63 0 -70 -2 -70 -20 0 -11 -7 -20 -15 -20
-8 0 -15 -9 -15 -20 0 -13 -7 -20 -20 -20 -11 0 -20 -7 -20 -15 0 -8 -7 -15
-15 -15 -8 0 -15 -9 -15 -20 0 -11 -7 -20 -15 -20 -13 0 -15 -23 -15 -150 0
-127 2 -150 15 -150 12 0 15 -15 15 -75 0 -60 3 -75 15 -75 11 0 15 -11 15
-40 0 -33 3 -40 20 -40 16 0 20 -7 20 -35 0 -24 5 -35 15 -35 11 0 15 -11 15
-40 0 -33 3 -40 20 -40 11 0 20 -7 20 -15 0 -8 7 -15 15 -15 11 0 15 -11 15
-40 0 -29 4 -40 15 -40 8 0 15 -9 15 -20 0 -13 7 -20 20 -20 11 0 20 -7 20
-15 0 -8 7 -15 15 -15 8 0 15 -9 15 -20 0 -13 7 -20 20 -20 13 0 20 -7 20 -20
0 -11 7 -20 15 -20 8 0 15 -9 15 -20 0 -11 7 -20 15 -20 8 0 15 -7 15 -15 0
-10 11 -15 35 -15 28 0 35 -4 35 -20 0 -16 7 -20 35 -20 l35 0 0 -130 c0 -109
-2 -130 -15 -130 -13 0 -15 -242 -15 -2120 0 -1878 2 -2120 15 -2120 12 0 15
-17 15 -95 0 -78 3 -95 15 -95 11 0 15 -11 15 -40 0 -33 3 -40 20 -40 16 0 20
-7 20 -35 0 -24 5 -35 15 -35 11 0 15 -11 15 -40 0 -33 3 -40 20 -40 11 0 20
-7 20 -15 0 -8 7 -15 15 -15 8 0 15 -9 15 -20 0 -11 7 -20 15 -20 8 0 15 -9
15 -20 0 -13 7 -20 20 -20 13 0 20 -7 20 -20 0 -16 7 -20 35 -20 24 0 35 -5
35 -15 0 -8 7 -15 15 -15 8 0 15 -9 15 -20 0 -16 7 -20 35 -20 28 0 35 -4 35
-20 0 -16 7 -20 35 -20 28 0 35 -4 35 -20 0 -16 7 -20 30 -20 20 0 30 -5 30
-15 0 -12 13 -15 55 -15 48 0 55 -2 55 -20 0 -17 7 -20 50 -20 43 0 50 -3 50
-20 0 -17 7 -20 50 -20 43 0 50 -3 50 -20 0 -17 7 -20 50 -20 38 0 50 -4 50
-15 0 -11 12 -15 50 -15 43 0 50 -3 50 -20 0 -18 7 -20 70 -20 63 0 70 -2 70
-20 0 -17 7 -20 50 -20 43 0 50 -3 50 -20 0 -18 7 -20 85 -20 69 0 85 -3 85
-15 0 -12 16 -15 85 -15 78 0 85 -2 85 -20 0 -19 7 -20 135 -20 128 0 135 -1
135 -20 0 -20 7 -20 410 -20 342 0 410 -2 410 -14 0 -7 10 -16 23 -20 29 -8
1515 -8 1545 0 12 4 22 13 22 20 0 11 35 14 190 14 183 0 190 1 190 20 0 19 7
20 135 20 128 0 135 1 135 20 0 18 7 20 85 20 69 0 85 3 85 15 0 12 16 15 85
15 78 0 85 2 85 20 0 18 7 20 65 20 58 0 65 2 65 20 0 18 7 20 55 20 48 0 55
2 55 20 0 17 7 20 50 20 38 0 50 4 50 15 0 11 12 15 50 15 43 0 50 3 50 20 0
17 7 20 50 20 43 0 50 3 50 20 0 17 7 20 50 20 43 0 50 3 50 20 0 18 7 20 55
20 42 0 55 3 55 15 0 10 10 15 30 15 23 0 30 4 30 20 0 16 7 20 35 20 28 0 35
4 35 20 0 16 7 20 35 20 28 0 35 4 35 20 0 11 7 20 15 20 8 0 15 7 15 15 0 10
11 15 35 15 28 0 35 4 35 20 0 13 7 20 20 20 13 0 20 7 20 20 0 11 7 20 15 20
8 0 15 9 15 20 0 11 7 20 15 20 8 0 15 7 15 15 0 8 9 15 20 15 17 0 20 7 20
40 0 29 4 40 15 40 10 0 15 11 15 35 0 28 4 35 20 35 17 0 20 7 20 40 0 29 4
40 15 40 12 0 15 17 15 95 0 78 3 95 15 95 13 0 15 244 15 2135 0 1891 -2
2135 -15 2135 -12 0 -15 19 -15 115 l0 115 35 0 c28 0 35 4 35 20 0 16 7 20
35 20 24 0 35 5 35 15 0 8 7 15 15 15 8 0 15 9 15 20 0 11 7 20 15 20 8 0 15
9 15 20 0 13 7 20 20 20 13 0 20 7 20 20 0 11 7 20 15 20 8 0 15 7 15 15 0 8
9 15 20 15 13 0 20 7 20 20 0 11 7 20 15 20 8 0 15 9 15 20 0 11 7 20 15 20
10 0 15 11 15 35 0 28 4 35 20 35 17 0 20 7 20 40 0 29 4 40 15 40 10 0 15 11
15 35 0 28 4 35 20 35 17 0 20 7 20 40 0 29 4 40 15 40 12 0 15 15 15 75 0 60
3 75 15 75 13 0 15 23 15 150 0 127 -2 150 -15 150 -8 0 -15 9 -15 20 0 11 -7
20 -15 20 -8 0 -15 7 -15 15 0 8 -9 15 -20 15 -13 0 -20 7 -20 20 0 11 -7 20
-15 20 -8 0 -15 9 -15 20 0 18 -7 20 -70 20 -63 0 -70 2 -70 20 0 19 -7 20
-185 20 l-185 0 0 150 c0 127 2 150 15 150 13 0 15 75 15 615 0 608 0 615 20
615 20 0 20 7 20 285 0 247 2 285 15 285 8 0 15 7 15 15 0 10 11 15 35 15 34
0 35 1 35 40 0 29 4 40 15 40 8 0 15 9 15 20 0 13 7 20 20 20 18 0 20 7 20 55
0 42 3 55 15 55 12 0 15 17 15 95 0 78 -3 95 -15 95 -8 0 -15 7 -15 15 0 8 -9
15 -20 15 -13 0 -20 7 -20 20 0 16 -7 20 -35 20 -28 0 -35 4 -35 20 0 16 -7
20 -30 20 -23 0 -30 4 -30 20 0 16 -7 20 -35 20 -24 0 -35 5 -35 15 0 12 -16
15 -85 15 -78 0 -85 2 -85 20 0 19 -7 20 -105 20 -98 0 -105 1 -105 20 0 11
-7 20 -15 20 -13 0 -15 29 -15 205 0 176 2 205 15 205 12 0 15 19 15 115 0 96
-3 115 -15 115 -12 0 -15 15 -15 75 0 60 3 75 15 75 12 0 15 17 15 95 l0 95
70 0 c56 0 70 3 70 15 0 10 11 15 35 15 28 0 35 4 35 20 0 11 7 20 15 20 8 0
15 9 15 20 0 13 7 20 20 20 19 0 20 7 20 95 0 88 -1 95 -20 95 -16 0 -20 7
-20 35 0 24 -5 35 -15 35 -8 0 -15 9 -15 20 0 13 -7 20 -20 20 -13 0 -20 7
-20 20 0 11 -7 20 -15 20 -8 0 -15 7 -15 15 0 8 -7 15 -15 15 -8 0 -15 9 -15
20 0 16 -7 20 -35 20 -28 0 -35 4 -35 20 0 16 -7 20 -35 20 -28 0 -35 4 -35
20 0 16 -7 20 -35 20 -24 0 -35 5 -35 15 0 10 -11 15 -35 15 -28 0 -35 4 -35
20 0 11 -7 20 -15 20 -8 0 -15 9 -15 20 0 11 -7 20 -15 20 -8 0 -15 9 -15 20
0 13 -7 20 -20 20 -11 0 -20 7 -20 15 0 8 -7 15 -15 15 -11 0 -15 11 -15 40 0
33 -3 40 -20 40 -16 0 -20 7 -20 35 0 24 -5 35 -15 35 -11 0 -15 11 -15 40 0
29 -4 40 -15 40 -10 0 -15 11 -15 35 0 28 -4 35 -20 35 -17 0 -20 7 -20 40 0
29 -4 40 -15 40 -10 0 -15 11 -15 35 0 28 -4 35 -20 35 -17 0 -20 7 -20 40 0
29 -4 40 -15 40 -10 0 -15 11 -15 35 0 24 -5 35 -15 35 -11 0 -15 11 -15 40 0
33 -3 40 -20 40 -13 0 -20 7 -20 20 0 11 -7 20 -15 20 -10 0 -15 11 -15 35 0
28 -4 35 -20 35 -17 0 -20 7 -20 40 0 29 -4 40 -15 40 -10 0 -15 11 -15 35 0
24 -5 35 -15 35 -11 0 -15 11 -15 40 0 33 -3 40 -20 40 -18 0 -20 7 -20 55 0
42 -3 55 -15 55 -10 0 -15 11 -15 35 0 28 -4 35 -20 35 -17 0 -20 7 -20 40 0
29 -4 40 -15 40 -12 0 -15 13 -15 55 0 42 -3 55 -15 55 -11 0 -15 11 -15 40 0
33 -3 40 -20 40 -16 0 -20 7 -20 35 0 24 -5 35 -15 35 -12 0 -15 13 -15 55 0
42 -3 55 -15 55 -12 0 -15 13 -15 60 0 53 -2 60 -20 60 -18 0 -20 7 -20 55 0
42 -3 55 -15 55 -12 0 -15 15 -15 75 0 68 -2 75 -20 75 -20 0 -20 7 -20 450 0
393 -2 450 -15 450 -10 0 -15 11 -15 35 0 24 -5 35 -15 35 -8 0 -15 9 -15 20
0 13 -7 20 -20 20 -13 0 -20 7 -20 20 0 17 -7 20 -50 20 -43 0 -50 3 -50 20 0
17 -7 20 -50 20 -38 0 -50 4 -50 15 0 10 -11 15 -35 15 -28 0 -35 4 -35 20 0
11 -7 20 -15 20 -8 0 -15 9 -15 20 0 13 -7 20 -20 20 -13 0 -20 7 -20 20 0 11
-7 20 -15 20 -10 0 -15 11 -15 35 0 28 -4 35 -20 35 -17 0 -20 7 -20 40 0 29
-4 40 -15 40 -10 0 -15 11 -15 35 0 24 -5 35 -15 35 -11 0 -15 11 -15 40 0 33
-3 40 -20 40 -16 0 -20 7 -20 35 0 24 -5 35 -15 35 -11 0 -15 11 -15 40 0 33
-3 40 -20 40 -11 0 -20 7 -20 15 0 8 -7 15 -15 15 -11 0 -15 11 -15 40 0 29
-4 40 -15 40 -10 0 -15 11 -15 35 0 28 -4 35 -20 35 -17 0 -20 7 -20 40 0 29
-4 40 -15 40 -10 0 -15 11 -15 35 0 28 -4 35 -20 35 -17 0 -20 7 -20 40 0 29
-4 40 -15 40 -10 0 -15 11 -15 35 0 24 -5 35 -15 35 -11 0 -15 11 -15 40 0 33
-3 40 -20 40 -16 0 -20 7 -20 35 0 24 -5 35 -15 35 -11 0 -15 11 -15 40 0 33
-3 40 -20 40 -16 0 -20 7 -20 35 0 24 -5 35 -15 35 -11 0 -15 11 -15 40 0 29
-4 40 -15 40 -10 0 -15 11 -15 35 0 28 -4 35 -20 35 -17 0 -20 7 -20 40 0 29
-4 40 -15 40 -10 0 -15 11 -15 35 0 28 -4 35 -20 35 -17 0 -20 7 -20 40 0 29
-4 40 -15 40 -10 0 -15 11 -15 35 0 24 -5 35 -15 35 -12 0 -15 13 -15 60 0 53
-2 60 -20 60 -16 0 -20 7 -20 35 0 24 -5 35 -15 35 -12 0 -15 13 -15 55 0 48
-2 55 -20 55 -17 0 -20 7 -20 40 0 29 -4 40 -15 40 -8 0 -15 9 -15 20 0 11 -7
20 -15 20 -10 0 -15 11 -15 35 0 28 -4 35 -20 35 -13 0 -20 7 -20 20 0 11 -7
20 -15 20 -10 0 -15 11 -15 35 0 28 -4 35 -20 35 -13 0 -20 7 -20 20 0 16 7
20 35 20 28 0 35 4 35 20 0 13 7 20 20 20 13 0 20 7 20 20 0 11 7 20 15 20 8
0 15 7 15 15 0 8 7 15 15 15 8 0 15 9 15 20 0 13 7 20 20 20 13 0 20 7 20 20
0 11 7 20 15 20 12 0 15 15 15 75 0 68 2 75 20 75 18 0 20 7 20 75 0 68 -2 75
-20 75 -18 0 -20 7 -20 55 0 42 -3 55 -15 55 -11 0 -15 11 -15 40 0 33 -3 40
-20 40 -16 0 -20 7 -20 35 0 24 -5 35 -15 35 -8 0 -15 9 -15 20 0 16 -7 20
-35 20 -33 0 -35 2 -35 35 0 28 4 35 20 35 19 0 20 7 20 170 0 163 -1 170 -20
170 -19 0 -20 7 -20 115 0 96 -3 115 -15 115 -13 0 -15 21 -15 130 0 123 -1
130 -20 130 -19 0 -20 7 -20 95 0 78 -3 95 -15 95 -12 0 -15 15 -15 75 0 60
-3 75 -15 75 -12 0 -15 13 -15 55 l0 55 -55 0 -55 0 0 -40z m70 -355 c0 -128
1 -135 20 -135 19 0 20 -7 20 -130 0 -109 2 -130 15 -130 12 0 15 -19 15 -110
0 -91 3 -110 15 -110 11 0 15 -11 15 -40 0 -29 -4 -40 -15 -40 -12 0 -15 -13
-15 -55 0 -42 -3 -55 -15 -55 -11 0 -15 -11 -15 -40 l0 -40 -70 0 c-63 0 -70
2 -70 20 0 11 -7 20 -15 20 -13 0 -15 28 -15 190 0 162 2 190 15 190 12 0 15
15 15 75 0 60 3 75 15 75 12 0 15 17 15 90 0 83 1 90 20 90 19 0 20 7 20 135
0 113 2 135 15 135 13 0 15 -22 15 -135z m70 -1050 c0 -10 11 -15 35 -15 28 0
35 -4 35 -20 0 -11 7 -20 15 -20 11 0 15 -11 15 -40 0 -33 3 -40 20 -40 19 0
20 -7 20 -150 0 -143 -1 -150 -20 -150 -11 0 -20 -7 -20 -15 0 -8 -7 -15 -15
-15 -8 0 -15 -9 -15 -20 0 -13 -7 -20 -20 -20 -13 0 -20 -7 -20 -20 0 -11 -7
-20 -15 -20 -8 0 -15 -9 -15 -20 0 -17 -7 -20 -50 -20 -38 0 -50 -4 -50 -15 0
-12 -14 -15 -70 -15 -56 0 -70 3 -70 15 0 8 -7 15 -15 15 -8 0 -15 9 -15 20 0
16 -7 20 -35 20 -34 0 -35 1 -35 40 0 29 -4 40 -15 40 -13 0 -15 21 -15 130 0
109 2 130 15 130 10 0 15 11 15 35 0 28 4 35 20 35 13 0 20 7 20 20 0 11 7 20
15 20 8 0 15 9 15 20 0 11 7 20 15 20 8 0 15 9 15 20 0 16 7 20 35 20 24 0 35
5 35 15 0 12 16 15 85 15 69 0 85 -3 85 -15z m-200 -1200 c0 -128 -1 -135 -20
-135 -19 0 -20 7 -20 135 0 128 1 135 20 135 19 0 20 -7 20 -135z m170 -15 c0
-127 2 -150 15 -150 13 0 15 -23 15 -150 0 -127 2 -150 15 -150 13 0 15 -22
15 -135 0 -128 1 -135 20 -135 19 0 20 -7 20 -130 0 -109 2 -130 15 -130 12 0
15 -19 15 -110 0 -103 1 -110 20 -110 19 0 20 -7 20 -115 0 -96 3 -115 15
-115 12 0 15 -17 15 -95 0 -78 3 -95 15 -95 12 0 15 -17 15 -90 0 -83 1 -90
20 -90 18 0 20 -7 20 -75 0 -60 3 -75 15 -75 12 0 15 -15 15 -75 0 -68 2 -75
20 -75 18 0 20 -7 20 -75 0 -60 3 -75 15 -75 12 0 15 -17 15 -95 0 -78 3 -95
15 -95 12 0 15 -15 15 -75 0 -68 2 -75 20 -75 18 0 20 -7 20 -75 0 -60 3 -75
15 -75 12 0 15 -15 15 -75 0 -68 2 -75 20 -75 19 0 20 -7 20 -95 0 -78 3 -95
15 -95 12 0 15 -15 15 -75 0 -60 3 -75 15 -75 12 0 15 -15 15 -75 0 -68 2 -75
20 -75 19 0 20 -7 20 -95 0 -78 3 -95 15 -95 12 0 15 -15 15 -75 0 -68 2 -75
20 -75 18 0 20 -7 20 -75 0 -60 3 -75 15 -75 12 0 15 -15 15 -75 0 -60 3 -75
15 -75 12 0 15 -13 15 -55 0 -48 2 -55 20 -55 18 0 20 -7 20 -75 0 -60 3 -75
15 -75 12 0 15 -17 15 -95 0 -88 1 -95 20 -95 18 0 20 -7 20 -75 0 -60 3 -75
15 -75 12 0 15 -17 15 -90 0 -73 3 -90 15 -90 13 0 15 -23 15 -150 l0 -150
-490 0 -490 0 0 35 c0 24 5 35 15 35 11 0 15 11 15 40 0 29 -4 40 -15 40 -13
0 -15 111 -15 935 l0 935 85 0 c78 0 85 2 85 20 0 18 7 20 65 20 58 0 65 2 65
20 0 13 7 20 20 20 16 0 20 7 20 35 0 24 5 35 15 35 13 0 15 36 15 265 0 229
-2 265 -15 265 -12 0 -15 15 -15 75 0 68 -2 75 -20 75 -16 0 -20 7 -20 35 0
32 -2 35 -30 35 -23 0 -30 4 -30 20 0 13 -7 20 -20 20 -13 0 -20 7 -20 20 0
11 -7 20 -15 20 -8 0 -15 7 -15 15 0 8 -9 15 -20 15 -13 0 -20 7 -20 20 0 11
-7 20 -15 20 -8 0 -15 9 -15 20 0 16 -7 20 -35 20 -28 0 -35 4 -35 20 0 11 -7
20 -15 20 -13 0 -15 90 -15 750 0 743 0 750 -20 750 -19 0 -20 7 -20 185 0
178 1 185 20 185 19 0 20 7 20 115 l0 115 35 0 35 0 0 -150z m-310 -155 c0
-24 -5 -35 -15 -35 -10 0 -15 11 -15 35 0 24 5 35 15 35 10 0 15 -11 15 -35z
m440 0 c0 -24 -5 -35 -15 -35 -10 0 -15 11 -15 35 0 24 5 35 15 35 10 0 15
-11 15 -35z m-340 -465 c0 -463 0 -470 20 -470 20 0 20 -7 20 -450 l0 -450
-35 0 c-28 0 -35 -4 -35 -20 0 -11 -7 -20 -15 -20 -8 0 -15 -9 -15 -20 0 -13
-7 -20 -20 -20 -11 0 -20 -7 -20 -15 0 -8 -7 -15 -15 -15 -8 0 -15 -9 -15 -20
0 -13 -7 -20 -20 -20 -13 0 -20 -7 -20 -20 0 -16 -7 -20 -30 -20 -28 0 -30 -3
-30 -35 0 -28 -4 -35 -20 -35 -18 0 -20 -7 -20 -75 0 -60 -3 -75 -15 -75 -13
0 -15 -36 -15 -265 0 -229 2 -265 15 -265 10 0 15 -11 15 -35 0 -28 4 -35 20
-35 13 0 20 -7 20 -20 0 -17 7 -20 50 -20 43 0 50 -3 50 -20 0 -18 7 -20 85
-20 l85 0 0 -225 c0 -218 -1 -225 -20 -225 -20 0 -20 -7 -20 -785 l0 -785
-455 0 -455 0 0 150 c0 127 2 150 15 150 12 0 15 17 15 90 0 73 3 90 15 90 12
0 15 15 15 75 0 68 2 75 20 75 19 0 20 7 20 95 0 78 3 95 15 95 12 0 15 15 15
75 0 68 2 75 20 75 18 0 20 7 20 55 0 42 3 55 15 55 12 0 15 15 15 75 0 60 3
75 15 75 12 0 15 15 15 75 0 68 2 75 20 75 18 0 20 7 20 75 0 60 3 75 15 75
12 0 15 17 15 95 0 88 1 95 20 95 18 0 20 7 20 75 0 60 3 75 15 75 12 0 15 15
15 75 0 60 3 75 15 75 12 0 15 17 15 95 0 88 1 95 20 95 18 0 20 7 20 75 0 60
3 75 15 75 12 0 15 15 15 75 0 68 2 75 20 75 18 0 20 7 20 75 0 60 3 75 15 75
12 0 15 17 15 95 0 78 3 95 15 95 12 0 15 15 15 75 0 68 2 75 20 75 18 0 20 7
20 75 0 60 3 75 15 75 12 0 15 15 15 75 0 68 2 75 20 75 19 0 20 7 20 90 0 73
3 90 15 90 12 0 15 17 15 95 0 78 3 95 15 95 12 0 15 19 15 115 0 108 1 115
20 115 19 0 20 7 20 110 0 91 3 110 15 110 13 0 15 21 15 130 0 123 1 130 20
130 19 0 20 7 20 135 0 113 2 135 15 135 13 0 15 23 15 150 0 127 2 150 15
150 13 0 15 -59 15 -470z m-130 275 c0 -68 -2 -75 -20 -75 -19 0 -20 -7 -20
-110 0 -91 -3 -110 -15 -110 -13 0 -15 -21 -15 -130 0 -109 -2 -130 -15 -130
-12 0 -15 -19 -15 -115 0 -108 -1 -115 -20 -115 -19 0 -20 -7 -20 -110 0 -91
-3 -110 -15 -110 -12 0 -15 -17 -15 -95 0 -88 -1 -95 -20 -95 -18 0 -20 -7
-20 -75 0 -60 -3 -75 -15 -75 -12 0 -15 -17 -15 -95 0 -78 -3 -95 -15 -95 -12
0 -15 -15 -15 -75 0 -68 -2 -75 -20 -75 -18 0 -20 -7 -20 -75 0 -60 -3 -75
-15 -75 -12 0 -15 -15 -15 -75 0 -68 -2 -75 -20 -75 -18 0 -20 -7 -20 -75 0
-60 -3 -75 -15 -75 -12 0 -15 -15 -15 -75 0 -60 -3 -75 -15 -75 -12 0 -15 -15
-15 -75 0 -68 -2 -75 -20 -75 -18 0 -20 -7 -20 -75 0 -60 -3 -75 -15 -75 -12
0 -15 -15 -15 -75 0 -68 -2 -75 -20 -75 -19 0 -20 -7 -20 -95 0 -78 -3 -95
-15 -95 -12 0 -15 -15 -15 -75 0 -60 -3 -75 -15 -75 -12 0 -15 -15 -15 -75 0
-68 -2 -75 -20 -75 -18 0 -20 -7 -20 -75 0 -60 -3 -75 -15 -75 -12 0 -15 -15
-15 -75 0 -68 -2 -75 -20 -75 -18 0 -20 -7 -20 -75 0 -60 -3 -75 -15 -75 -12
0 -15 -13 -15 -55 0 -42 -3 -55 -15 -55 -12 0 -15 -15 -15 -75 0 -68 -2 -75
-20 -75 -18 0 -20 -7 -20 -75 0 -60 -3 -75 -15 -75 -12 0 -15 -17 -15 -95 0
-88 -1 -95 -20 -95 -19 0 -20 -7 -20 -90 0 -73 -3 -90 -15 -90 -13 0 -15 -23
-15 -150 l0 -150 -270 0 -270 0 0 55 c0 42 3 55 15 55 12 0 15 13 15 55 0 42
3 55 15 55 12 0 15 15 15 75 0 68 2 75 20 75 18 0 20 7 20 55 0 42 3 55 15 55
12 0 15 13 15 60 0 53 2 60 20 60 18 0 20 7 20 55 0 42 3 55 15 55 12 0 15 13
15 55 0 42 3 55 15 55 11 0 15 11 15 40 0 33 3 40 20 40 18 0 20 7 20 55 0 42
3 55 15 55 12 0 15 13 15 55 0 48 2 55 20 55 17 0 20 7 20 40 0 29 4 40 15 40
12 0 15 13 15 55 0 42 3 55 15 55 12 0 15 13 15 55 0 48 2 55 20 55 18 0 20 7
20 55 0 42 3 55 15 55 11 0 15 11 15 40 0 33 3 40 20 40 18 0 20 7 20 55 0 42
3 55 15 55 12 0 15 13 15 55 0 42 3 55 15 55 12 0 15 13 15 60 0 53 2 60 20
60 18 0 20 7 20 55 0 42 3 55 15 55 12 0 15 15 15 75 0 68 2 75 20 75 18 0 20
7 20 55 0 42 3 55 15 55 11 0 15 11 15 40 0 29 4 40 15 40 12 0 15 13 15 55 0
48 2 55 20 55 18 0 20 7 20 55 0 42 3 55 15 55 12 0 15 13 15 55 0 48 2 55 20
55 17 0 20 7 20 40 0 29 4 40 15 40 12 0 15 13 15 55 0 42 3 55 15 55 12 0 15
13 15 55 0 48 2 55 20 55 18 0 20 7 20 60 0 47 3 60 15 60 12 0 15 13 15 55 0
48 2 55 20 55 18 0 20 7 20 55 0 42 3 55 15 55 12 0 15 13 15 55 0 42 3 55 15
55 12 0 15 13 15 60 0 53 2 60 20 60 18 0 20 7 20 55 0 42 3 55 15 55 12 0 15
13 15 55 0 48 2 55 20 55 18 0 20 7 20 75 0 60 3 75 15 75 12 0 15 13 15 55 0
42 3 55 15 55 12 0 15 13 15 60 0 53 2 60 20 60 18 0 20 7 20 75 0 60 3 75 15
75 12 0 15 13 15 55 0 48 2 55 20 55 18 0 20 7 20 55 0 42 3 55 15 55 12 0 15
15 15 75 0 60 3 75 15 75 12 0 15 13 15 55 0 48 2 55 20 55 18 0 20 -7 20 -75z
m510 20 c0 -42 3 -55 15 -55 12 0 15 -15 15 -75 0 -60 3 -75 15 -75 12 0 15
-13 15 -55 0 -48 2 -55 20 -55 18 0 20 -7 20 -55 0 -42 3 -55 15 -55 12 0 15
-15 15 -75 0 -68 2 -75 20 -75 18 0 20 -7 20 -60 0 -47 3 -60 15 -60 12 0 15
-13 15 -55 0 -42 3 -55 15 -55 12 0 15 -15 15 -75 0 -68 2 -75 20 -75 18 0 20
-7 20 -55 0 -42 3 -55 15 -55 12 0 15 -13 15 -55 0 -48 2 -55 20 -55 18 0 20
-7 20 -60 0 -47 3 -60 15 -60 12 0 15 -13 15 -55 0 -42 3 -55 15 -55 12 0 15
-13 15 -55 0 -48 2 -55 20 -55 18 0 20 -7 20 -55 0 -42 3 -55 15 -55 12 0 15
-13 15 -60 0 -53 2 -60 20 -60 18 0 20 -7 20 -55 0 -42 3 -55 15 -55 12 0 15
-13 15 -55 0 -42 3 -55 15 -55 11 0 15 -11 15 -40 0 -33 3 -40 20 -40 18 0 20
-7 20 -55 0 -42 3 -55 15 -55 12 0 15 -13 15 -55 0 -48 2 -55 20 -55 18 0 20
-7 20 -55 0 -42 3 -55 15 -55 11 0 15 -11 15 -40 0 -29 4 -40 15 -40 12 0 15
-13 15 -55 0 -48 2 -55 20 -55 18 0 20 -7 20 -75 0 -60 3 -75 15 -75 12 0 15
-13 15 -55 0 -48 2 -55 20 -55 18 0 20 -7 20 -60 0 -47 3 -60 15 -60 12 0 15
-13 15 -55 0 -42 3 -55 15 -55 12 0 15 -13 15 -55 0 -48 2 -55 20 -55 17 0 20
-7 20 -40 0 -29 4 -40 15 -40 12 0 15 -13 15 -55 0 -48 2 -55 20 -55 18 0 20
-7 20 -55 0 -42 3 -55 15 -55 12 0 15 -13 15 -55 0 -42 3 -55 15 -55 11 0 15
-11 15 -40 0 -33 3 -40 20 -40 18 0 20 -7 20 -55 0 -42 3 -55 15 -55 12 0 15
-13 15 -55 0 -48 2 -55 20 -55 18 0 20 -7 20 -60 0 -47 3 -60 15 -60 10 0 15
-11 15 -35 0 -24 5 -35 15 -35 12 0 15 -13 15 -55 0 -48 2 -55 20 -55 18 0 20
-7 20 -60 0 -47 3 -60 15 -60 12 0 15 -13 15 -55 0 -48 2 -55 20 -55 18 0 20
-7 20 -75 0 -60 3 -75 15 -75 12 0 15 -15 15 -75 0 -60 3 -75 15 -75 10 0 15
-11 15 -35 l0 -35 -270 0 -270 0 0 150 c0 127 -2 150 -15 150 -12 0 -15 17
-15 90 0 83 -1 90 -20 90 -19 0 -20 7 -20 95 0 78 -3 95 -15 95 -12 0 -15 15
-15 75 0 68 -2 75 -20 75 -18 0 -20 7 -20 75 0 60 -3 75 -15 75 -12 0 -15 13
-15 55 0 42 -3 55 -15 55 -12 0 -15 15 -15 75 0 68 -2 75 -20 75 -18 0 -20 7
-20 75 0 60 -3 75 -15 75 -12 0 -15 15 -15 75 0 68 -2 75 -20 75 -18 0 -20 7
-20 75 0 60 -3 75 -15 75 -12 0 -15 15 -15 75 0 60 -3 75 -15 75 -12 0 -15 17
-15 95 0 88 -1 95 -20 95 -18 0 -20 7 -20 75 0 60 -3 75 -15 75 -12 0 -15 15
-15 75 0 68 -2 75 -20 75 -18 0 -20 7 -20 75 0 60 -3 75 -15 75 -12 0 -15 15
-15 75 0 60 -3 75 -15 75 -12 0 -15 15 -15 75 0 68 -2 75 -20 75 -18 0 -20 7
-20 75 0 60 -3 75 -15 75 -12 0 -15 15 -15 75 0 68 -2 75 -20 75 -18 0 -20 7
-20 75 0 60 -3 75 -15 75 -12 0 -15 17 -15 95 0 78 -3 95 -15 95 -12 0 -15 15
-15 75 0 68 -2 75 -20 75 -19 0 -20 7 -20 95 0 78 -3 95 -15 95 -12 0 -15 17
-15 90 0 83 -1 90 -20 90 -19 0 -20 7 -20 135 0 113 -2 135 -15 135 -13 0 -15
21 -15 130 0 109 -2 130 -15 130 -12 0 -15 19 -15 110 0 103 -1 110 -20 110
-18 0 -20 7 -20 75 0 68 2 75 20 75 18 0 20 -7 20 -55z m-650 -75 c0 -11 -7
-20 -15 -20 -8 0 -15 9 -15 20 0 11 7 20 15 20 8 0 15 -9 15 -20z m780 0 c0
-11 -7 -20 -15 -20 -8 0 -15 9 -15 20 0 11 7 20 15 20 8 0 15 -9 15 -20z
m-810 -110 c0 -13 -7 -20 -20 -20 -13 0 -20 7 -20 20 0 13 7 20 20 20 13 0 20
-7 20 -20z m850 0 c0 -13 -7 -20 -20 -20 -13 0 -20 7 -20 20 0 13 7 20 20 20
13 0 20 -7 20 -20z m-890 -95 c0 -24 -5 -35 -15 -35 -12 0 -15 -13 -15 -55 0
-42 -3 -55 -15 -55 -12 0 -15 -13 -15 -60 0 -53 -2 -60 -20 -60 -18 0 -20 -7
-20 -55 0 -42 -3 -55 -15 -55 -12 0 -15 -13 -15 -55 0 -48 -2 -55 -20 -55 -18
0 -20 -7 -20 -75 0 -60 -3 -75 -15 -75 -12 0 -15 -13 -15 -55 0 -42 -3 -55
-15 -55 -12 0 -15 -13 -15 -60 0 -53 -2 -60 -20 -60 -16 0 -20 -7 -20 -35 0
-24 -5 -35 -15 -35 -12 0 -15 -13 -15 -55 0 -48 -2 -55 -20 -55 -18 0 -20 -7
-20 -60 0 -47 -3 -60 -15 -60 -12 0 -15 -13 -15 -55 0 -42 -3 -55 -15 -55 -12
0 -15 -13 -15 -55 0 -48 -2 -55 -20 -55 -17 0 -20 -7 -20 -40 0 -29 -4 -40
-15 -40 -12 0 -15 -13 -15 -55 0 -48 -2 -55 -20 -55 -18 0 -20 -7 -20 -55 0
-42 -3 -55 -15 -55 -12 0 -15 -13 -15 -55 0 -42 -3 -55 -15 -55 -12 0 -15 -13
-15 -60 0 -53 -2 -60 -20 -60 -16 0 -20 -7 -20 -35 0 -24 -5 -35 -15 -35 -12
0 -15 -13 -15 -55 0 -48 -2 -55 -20 -55 -18 0 -20 -7 -20 -60 0 -47 -3 -60
-15 -60 -12 0 -15 -13 -15 -55 0 -42 -3 -55 -15 -55 -12 0 -15 -13 -15 -55 0
-48 -2 -55 -20 -55 -18 0 -20 -7 -20 -75 0 -60 -3 -75 -15 -75 -12 0 -15 -13
-15 -55 0 -48 -2 -55 -20 -55 -18 0 -20 -7 -20 -60 0 -47 -3 -60 -15 -60 -12
0 -15 -13 -15 -55 0 -42 -3 -55 -15 -55 -10 0 -15 -11 -15 -35 0 -28 -4 -35
-20 -35 -18 0 -20 -7 -20 -60 0 -47 -3 -60 -15 -60 -12 0 -15 -13 -15 -55 0
-48 -2 -55 -20 -55 -16 0 -20 -7 -20 -35 0 -24 -5 -35 -15 -35 -12 0 -15 -13
-15 -60 0 -47 -3 -60 -15 -60 -12 0 -15 -13 -15 -55 0 -48 -2 -55 -20 -55 -18
0 -20 -7 -20 -55 0 -42 -3 -55 -15 -55 -12 0 -15 -13 -15 -55 0 -48 -2 -55
-20 -55 -18 0 -20 -7 -20 -60 0 -47 -3 -60 -15 -60 -12 0 -15 -13 -15 -55 0
-42 -3 -55 -15 -55 -12 0 -15 -13 -15 -55 0 -48 -2 -55 -20 -55 -18 0 -20 -7
-20 -55 0 -42 -3 -55 -15 -55 -12 0 -15 -13 -15 -60 0 -53 -2 -60 -20 -60 -18
0 -20 -7 -20 -75 0 -60 -3 -75 -15 -75 -10 0 -15 -11 -15 -35 l0 -35 -220 0
-220 0 0 35 c0 24 5 35 15 35 11 0 15 11 15 40 0 33 3 40 20 40 16 0 20 7 20
35 0 24 5 35 15 35 11 0 15 11 15 40 0 33 3 40 20 40 16 0 20 7 20 35 0 24 5
35 15 35 11 0 15 11 15 40 0 29 4 40 15 40 8 0 15 9 15 20 0 13 7 20 20 20 16
0 20 7 20 35 0 24 5 35 15 35 11 0 15 11 15 40 0 29 4 40 15 40 10 0 15 11 15
35 0 28 4 35 20 35 17 0 20 7 20 40 0 29 4 40 15 40 10 0 15 11 15 35 0 28 4
35 20 35 17 0 20 7 20 40 0 29 4 40 15 40 10 0 15 11 15 35 0 24 5 35 15 35
12 0 15 13 15 55 0 48 2 55 20 55 17 0 20 7 20 40 0 29 4 40 15 40 10 0 15 11
15 35 0 28 4 35 20 35 17 0 20 7 20 40 0 29 4 40 15 40 12 0 15 13 15 55 0 42
3 55 15 55 11 0 15 11 15 40 0 33 3 40 20 40 18 0 20 7 20 55 0 42 3 55 15 55
12 0 15 13 15 55 0 48 2 55 20 55 18 0 20 7 20 55 0 42 3 55 15 55 12 0 15 13
15 60 0 47 3 60 15 60 10 0 15 11 15 35 0 28 4 35 20 35 18 0 20 7 20 55 0 42
3 55 15 55 12 0 15 13 15 60 0 53 2 60 20 60 18 0 20 7 20 55 0 42 3 55 15 55
12 0 15 13 15 55 0 42 3 55 15 55 12 0 15 13 15 55 0 48 2 55 20 55 17 0 20 7
20 40 0 29 4 40 15 40 12 0 15 13 15 55 0 48 2 55 20 55 17 0 20 7 20 40 0 29
4 40 15 40 10 0 15 11 15 35 0 24 5 35 15 35 11 0 15 11 15 40 0 33 3 40 20
40 18 0 20 7 20 75 0 60 3 75 15 75 10 0 15 11 15 35 0 28 4 35 20 35 17 0 20
7 20 40 0 29 4 40 15 40 10 0 15 11 15 35 0 24 5 35 15 35 11 0 15 11 15 40 0
33 3 40 20 40 16 0 20 7 20 35 0 24 5 35 15 35 11 0 15 11 15 40 0 33 3 40 20
40 16 0 20 7 20 35 0 24 5 35 15 35 11 0 15 11 15 40 0 29 4 40 15 40 10 0 15
11 15 35 0 28 4 35 20 35 17 0 20 7 20 40 0 29 4 40 15 40 10 0 15 11 15 35 0
28 4 35 20 35 17 0 20 7 20 40 0 29 4 40 15 40 10 0 15 11 15 35 0 24 5 35 15
35 11 0 15 11 15 40 0 33 3 40 20 40 16 0 20 7 20 35 0 24 5 35 15 35 11 0 15
11 15 40 0 33 3 40 20 40 18 0 20 7 20 55 0 42 3 55 15 55 10 0 15 11 15 35 0
24 5 35 15 35 10 0 15 -11 15 -35z m920 0 c0 -24 5 -35 15 -35 12 0 15 -13 15
-55 0 -48 2 -55 20 -55 17 0 20 -7 20 -40 0 -29 4 -40 15 -40 10 0 15 -11 15
-35 0 -28 4 -35 20 -35 17 0 20 -7 20 -40 0 -29 4 -40 15 -40 10 0 15 -11 15
-35 0 -24 5 -35 15 -35 11 0 15 -11 15 -40 0 -33 3 -40 20 -40 16 0 20 -7 20
-35 0 -24 5 -35 15 -35 11 0 15 -11 15 -40 0 -33 3 -40 20 -40 16 0 20 -7 20
-35 0 -24 5 -35 15 -35 11 0 15 -11 15 -40 0 -29 4 -40 15 -40 10 0 15 -11 15
-35 0 -28 4 -35 20 -35 17 0 20 -7 20 -40 0 -29 4 -40 15 -40 10 0 15 -11 15
-35 0 -28 4 -35 20 -35 17 0 20 -7 20 -40 0 -29 4 -40 15 -40 10 0 15 -11 15
-35 0 -24 5 -35 15 -35 11 0 15 -11 15 -40 0 -33 3 -40 20 -40 16 0 20 -7 20
-35 0 -24 5 -35 15 -35 12 0 15 -15 15 -75 0 -68 2 -75 20 -75 17 0 20 -7 20
-40 0 -29 4 -40 15 -40 10 0 15 -11 15 -35 0 -24 5 -35 15 -35 11 0 15 -11 15
-40 0 -33 3 -40 20 -40 18 0 20 -7 20 -55 0 -42 3 -55 15 -55 11 0 15 -11 15
-40 0 -33 3 -40 20 -40 18 0 20 -7 20 -55 0 -42 3 -55 15 -55 12 0 15 -13 15
-55 0 -42 3 -55 15 -55 12 0 15 -13 15 -55 0 -48 2 -55 20 -55 18 0 20 -7 20
-60 0 -47 3 -60 15 -60 12 0 15 -13 15 -55 0 -48 2 -55 20 -55 16 0 20 -7 20
-35 0 -24 5 -35 15 -35 12 0 15 -13 15 -60 0 -47 3 -60 15 -60 12 0 15 -13 15
-55 0 -48 2 -55 20 -55 18 0 20 -7 20 -55 0 -42 3 -55 15 -55 12 0 15 -13 15
-55 0 -48 2 -55 20 -55 17 0 20 -7 20 -40 0 -29 4 -40 15 -40 12 0 15 -13 15
-55 0 -42 3 -55 15 -55 11 0 15 -11 15 -40 0 -33 3 -40 20 -40 16 0 20 -7 20
-35 0 -24 5 -35 15 -35 11 0 15 -11 15 -40 0 -33 3 -40 20 -40 18 0 20 -7 20
-55 0 -42 3 -55 15 -55 10 0 15 -11 15 -35 0 -24 5 -35 15 -35 11 0 15 -11 15
-40 0 -33 3 -40 20 -40 16 0 20 -7 20 -35 0 -24 5 -35 15 -35 11 0 15 -11 15
-40 0 -29 4 -40 15 -40 10 0 15 -11 15 -35 0 -28 4 -35 20 -35 17 0 20 -7 20
-40 0 -29 4 -40 15 -40 10 0 15 -11 15 -35 0 -28 4 -35 20 -35 13 0 20 -7 20
-20 0 -11 7 -20 15 -20 11 0 15 -11 15 -40 0 -29 4 -40 15 -40 10 0 15 -11 15
-35 0 -28 4 -35 20 -35 17 0 20 -7 20 -40 0 -29 4 -40 15 -40 10 0 15 -11 15
-35 0 -28 4 -35 20 -35 17 0 20 -7 20 -40 0 -29 4 -40 15 -40 10 0 15 -11 15
-35 l0 -35 -220 0 -220 0 0 35 c0 24 -5 35 -15 35 -12 0 -15 15 -15 75 0 68
-2 75 -20 75 -18 0 -20 7 -20 60 0 47 -3 60 -15 60 -12 0 -15 13 -15 55 0 48
-2 55 -20 55 -18 0 -20 7 -20 55 0 42 -3 55 -15 55 -12 0 -15 13 -15 55 0 42
-3 55 -15 55 -12 0 -15 13 -15 60 0 53 -2 60 -20 60 -18 0 -20 7 -20 55 0 42
-3 55 -15 55 -12 0 -15 13 -15 55 0 48 -2 55 -20 55 -18 0 -20 7 -20 55 0 42
-3 55 -15 55 -12 0 -15 13 -15 60 0 47 -3 60 -15 60 -10 0 -15 11 -15 35 0 28
-4 35 -20 35 -18 0 -20 7 -20 55 0 42 -3 55 -15 55 -12 0 -15 13 -15 60 0 53
-2 60 -20 60 -16 0 -20 7 -20 35 0 24 -5 35 -15 35 -12 0 -15 13 -15 55 0 42
-3 55 -15 55 -12 0 -15 13 -15 60 0 53 -2 60 -20 60 -18 0 -20 7 -20 55 0 42
-3 55 -15 55 -12 0 -15 15 -15 75 0 68 -2 75 -20 75 -18 0 -20 7 -20 55 0 42
-3 55 -15 55 -12 0 -15 13 -15 55 0 42 -3 55 -15 55 -12 0 -15 13 -15 60 0 53
-2 60 -20 60 -18 0 -20 7 -20 55 0 42 -3 55 -15 55 -10 0 -15 11 -15 35 0 28
-4 35 -20 35 -18 0 -20 7 -20 60 0 47 -3 60 -15 60 -12 0 -15 13 -15 55 0 42
-3 55 -15 55 -12 0 -15 13 -15 55 0 48 -2 55 -20 55 -18 0 -20 7 -20 55 0 42
-3 55 -15 55 -11 0 -15 11 -15 40 0 33 -3 40 -20 40 -18 0 -20 7 -20 55 0 42
-3 55 -15 55 -12 0 -15 13 -15 55 0 42 -3 55 -15 55 -12 0 -15 13 -15 60 0 53
-2 60 -20 60 -18 0 -20 7 -20 55 0 42 -3 55 -15 55 -10 0 -15 11 -15 35 0 28
-4 35 -20 35 -18 0 -20 7 -20 60 0 47 -3 60 -15 60 -12 0 -15 13 -15 55 0 42
-3 55 -15 55 -12 0 -15 15 -15 75 0 68 -2 75 -20 75 -18 0 -20 7 -20 55 0 42
-3 55 -15 55 -12 0 -15 13 -15 55 0 48 -2 55 -20 55 -18 0 -20 7 -20 60 0 47
-3 60 -15 60 -12 0 -15 13 -15 55 0 42 -3 55 -15 55 -10 0 -15 11 -15 35 0 24
5 35 15 35 10 0 15 -11 15 -35z m-410 -1515 c0 -13 7 -20 20 -20 13 0 20 -7
20 -20 0 -16 7 -20 30 -20 28 0 30 -3 30 -35 0 -28 4 -35 20 -35 13 0 20 -7
20 -20 0 -11 7 -20 15 -20 12 0 15 -13 15 -55 0 -48 2 -55 20 -55 19 0 20 -7
20 -210 0 -203 -1 -210 -20 -210 -16 0 -20 -7 -20 -35 l0 -35 -120 0 c-113 0
-120 -1 -120 -20 0 -18 -7 -20 -80 -20 -73 0 -80 2 -80 20 0 16 -7 20 -35 20
-33 0 -35 2 -35 35 0 28 -4 35 -20 35 -19 0 -20 7 -20 210 0 203 1 210 20 210
18 0 20 7 20 55 0 42 3 55 15 55 8 0 15 9 15 20 0 13 7 20 20 20 11 0 20 7 20
15 0 8 7 15 15 15 8 0 15 9 15 20 0 11 7 20 15 20 8 0 15 9 15 20 0 16 7 20
35 20 28 0 35 4 35 20 0 17 7 20 50 20 43 0 50 -3 50 -20z m-1360 -80 c0 -11
-7 -20 -15 -20 -10 0 -15 -11 -15 -35 0 -24 -5 -35 -15 -35 -12 0 -15 -13 -15
-55 0 -48 -2 -55 -20 -55 -17 0 -20 -7 -20 -40 0 -29 -4 -40 -15 -40 -12 0
-15 -13 -15 -55 0 -48 -2 -55 -20 -55 -17 0 -20 -7 -20 -40 0 -29 -4 -40 -15
-40 -13 0 -15 32 -15 225 l0 225 35 0 c28 0 35 4 35 20 0 18 7 20 65 20 58 0
65 -2 65 -20z m2720 0 c0 -16 7 -20 35 -20 l35 0 0 -225 c0 -193 -2 -225 -15
-225 -11 0 -15 11 -15 40 0 33 -3 40 -20 40 -18 0 -20 7 -20 55 0 42 -3 55
-15 55 -11 0 -15 11 -15 40 0 33 -3 40 -20 40 -18 0 -20 7 -20 55 0 42 -3 55
-15 55 -10 0 -15 11 -15 35 0 24 -5 35 -15 35 -8 0 -15 9 -15 20 0 18 7 20 65
20 58 0 65 -2 65 -20z m-2270 -3070 c0 -18 7 -20 65 -20 58 0 65 2 65 20 0 13
7 20 20 20 13 0 20 -7 20 -20 0 -20 7 -20 675 -20 668 0 675 0 675 20 0 13 7
20 20 20 13 0 20 -7 20 -20 0 -18 7 -20 65 -20 58 0 65 2 65 20 0 19 7 20 170
20 163 0 170 -1 170 -20 0 -20 7 -20 310 -20 303 0 310 0 310 -20 0 -20 7 -20
285 -20 278 0 285 0 285 -20 0 -18 7 -20 70 -20 56 0 70 -3 70 -15 0 -8 7 -15
15 -15 8 0 15 -9 15 -20 0 -16 7 -20 35 -20 28 0 35 -4 35 -20 0 -11 7 -20 15
-20 8 0 15 -9 15 -20 0 -16 7 -20 35 -20 24 0 35 -5 35 -15 0 -8 9 -15 20 -15
13 0 20 -7 20 -20 0 -11 7 -20 15 -20 8 0 15 -9 15 -20 0 -11 -7 -20 -15 -20
-8 0 -15 9 -15 20 0 19 -7 20 -255 20 -248 0 -255 1 -255 20 0 19 -7 20 -240
20 -207 0 -240 2 -240 15 0 13 -52 15 -405 15 -398 0 -405 0 -405 20 0 20 -7
20 -340 20 -333 0 -340 0 -340 -20 0 -20 -7 -20 -275 -20 -268 0 -275 0 -275
20 0 20 -7 20 -340 20 -333 0 -340 0 -340 -20 0 -20 -7 -20 -405 -20 -353 0
-405 -2 -405 -15 0 -13 -33 -15 -240 -15 -233 0 -240 -1 -240 -20 0 -19 -7
-20 -255 -20 -248 0 -255 -1 -255 -20 0 -11 -7 -20 -15 -20 -8 0 -15 9 -15 20
0 11 7 20 15 20 8 0 15 9 15 20 0 13 7 20 20 20 11 0 20 7 20 15 0 10 11 15
35 15 28 0 35 4 35 20 0 11 7 20 15 20 8 0 15 9 15 20 0 16 7 20 35 20 28 0
35 4 35 20 0 11 7 20 15 20 8 0 15 7 15 15 0 12 14 15 70 15 63 0 70 2 70 20
0 20 7 20 285 20 278 0 285 0 285 20 0 20 7 20 310 20 303 0 310 0 310 20 0
19 7 20 170 20 163 0 170 -1 170 -20z m840 -450 c0 -20 7 -20 665 -20 658 0
665 0 665 -20 0 -20 7 -20 610 -20 603 0 610 0 610 -20 0 -13 7 -20 20 -20 20
0 20 -7 20 -335 0 -328 0 -335 -20 -335 -19 0 -20 -7 -20 -150 l0 -150 -100 0
-100 0 0 75 c0 60 3 75 15 75 13 0 15 34 15 245 0 211 -2 245 -15 245 -10 0
-15 11 -15 35 0 28 -4 35 -20 35 -17 0 -20 7 -20 40 0 29 -4 40 -15 40 -8 0
-15 7 -15 15 0 8 -7 15 -15 15 -8 0 -15 9 -15 20 0 13 -7 20 -20 20 -13 0 -20
7 -20 20 0 16 -7 20 -35 20 -28 0 -35 4 -35 20 0 18 -7 20 -65 20 -58 0 -65
-2 -65 -20 0 -16 -7 -20 -35 -20 -28 0 -35 -4 -35 -20 0 -11 -7 -20 -15 -20
-8 0 -15 -9 -15 -20 0 -13 -7 -20 -20 -20 -11 0 -20 -7 -20 -15 0 -8 -7 -15
-15 -15 -8 0 -15 -9 -15 -20 0 -11 -7 -20 -15 -20 -12 0 -15 -13 -15 -55 0
-48 -2 -55 -20 -55 -19 0 -20 -7 -20 -135 0 -113 -2 -135 -15 -135 -13 0 -15
-23 -15 -150 l0 -150 -120 0 -120 0 0 95 c0 78 3 95 15 95 12 0 15 15 15 75 0
60 -3 75 -15 75 -13 0 -15 21 -15 130 0 109 -2 130 -15 130 -11 0 -15 11 -15
40 0 33 -3 40 -20 40 -16 0 -20 7 -20 35 0 24 -5 35 -15 35 -8 0 -15 9 -15 20
0 13 -7 20 -20 20 -13 0 -20 7 -20 20 0 11 -7 20 -15 20 -8 0 -15 9 -15 20 0
16 -7 20 -35 20 -24 0 -35 5 -35 15 0 12 -18 15 -100 15 -82 0 -100 -3 -100
-15 0 -10 -11 -15 -35 -15 -28 0 -35 -4 -35 -20 0 -11 -7 -20 -15 -20 -8 0
-15 -9 -15 -20 0 -13 -7 -20 -20 -20 -13 0 -20 -7 -20 -20 0 -11 -7 -20 -15
-20 -8 0 -15 -7 -15 -15 0 -8 -9 -15 -20 -15 -17 0 -20 -7 -20 -40 0 -29 -4
-40 -15 -40 -12 0 -15 -15 -15 -75 0 -60 -3 -75 -15 -75 -13 0 -15 -32 -15
-225 l0 -225 -35 0 c-28 0 -35 -4 -35 -20 0 -19 -7 -20 -155 -20 l-155 0 0 55
c0 48 2 55 20 55 18 0 20 7 20 60 0 53 -2 60 -20 60 -19 0 -20 7 -20 110 0 91
-3 110 -15 110 -12 0 -15 13 -15 60 0 53 -2 60 -20 60 -16 0 -20 7 -20 35 0
24 -5 35 -15 35 -11 0 -15 11 -15 40 0 29 -4 40 -15 40 -8 0 -15 7 -15 15 0 8
-9 15 -20 15 -13 0 -20 7 -20 20 0 16 -7 20 -35 20 -28 0 -35 4 -35 20 0 19
-7 20 -150 20 -143 0 -150 -1 -150 -20 0 -16 -7 -20 -35 -20 -28 0 -35 -4 -35
-20 0 -11 -7 -20 -15 -20 -8 0 -15 -7 -15 -15 0 -10 -11 -15 -35 -15 -28 0
-35 -4 -35 -20 0 -11 -7 -20 -15 -20 -11 0 -15 -11 -15 -40 0 -33 -3 -40 -20
-40 -16 0 -20 -7 -20 -35 0 -24 -5 -35 -15 -35 -12 0 -15 -13 -15 -55 0 -48
-2 -55 -20 -55 -19 0 -20 -7 -20 -95 0 -78 -3 -95 -15 -95 -12 0 -15 -15 -15
-75 0 -60 3 -75 15 -75 11 0 15 -11 15 -40 l0 -40 -135 0 c-128 0 -135 1 -135
20 0 16 -7 20 -35 20 l-35 0 0 225 c0 193 -2 225 -15 225 -12 0 -15 15 -15 75
0 60 -3 75 -15 75 -11 0 -15 11 -15 40 0 33 -3 40 -20 40 -11 0 -20 7 -20 15
0 8 -7 15 -15 15 -8 0 -15 9 -15 20 0 13 -7 20 -20 20 -13 0 -20 7 -20 20 0
11 -7 20 -15 20 -8 0 -15 9 -15 20 0 16 -7 20 -35 20 -24 0 -35 5 -35 15 0 12
-18 15 -100 15 -82 0 -100 -3 -100 -15 0 -10 -11 -15 -35 -15 -28 0 -35 -4
-35 -20 0 -11 -7 -20 -15 -20 -8 0 -15 -9 -15 -20 0 -13 -7 -20 -20 -20 -13 0
-20 -7 -20 -20 0 -11 -7 -20 -15 -20 -8 0 -15 -7 -15 -15 0 -8 -9 -15 -20 -15
-18 0 -20 -7 -20 -60 0 -47 -3 -60 -15 -60 -13 0 -15 -21 -15 -130 0 -109 -2
-130 -15 -130 -12 0 -15 -15 -15 -75 0 -60 3 -75 15 -75 12 0 15 -17 15 -95
l0 -95 -120 0 -120 0 0 150 c0 127 -2 150 -15 150 -13 0 -15 22 -15 135 0 128
-1 135 -20 135 -18 0 -20 7 -20 55 0 42 -3 55 -15 55 -8 0 -15 9 -15 20 0 11
-7 20 -15 20 -8 0 -15 7 -15 15 0 8 -9 15 -20 15 -13 0 -20 7 -20 20 0 11 -7
20 -15 20 -8 0 -15 9 -15 20 0 16 -7 20 -35 20 -28 0 -35 4 -35 20 0 18 -7 20
-65 20 -58 0 -65 -2 -65 -20 0 -16 -7 -20 -35 -20 -28 0 -35 -4 -35 -20 0 -13
-7 -20 -20 -20 -13 0 -20 -7 -20 -20 0 -11 -7 -20 -15 -20 -8 0 -15 -7 -15
-15 0 -8 -7 -15 -15 -15 -11 0 -15 -11 -15 -40 0 -33 -3 -40 -20 -40 -16 0
-20 -7 -20 -35 0 -24 -5 -35 -15 -35 -13 0 -15 -34 -15 -245 0 -211 2 -245 15
-245 12 0 15 -15 15 -75 l0 -75 -100 0 -100 0 0 150 c0 143 -1 150 -20 150
-20 0 -20 7 -20 335 0 328 0 335 20 335 13 0 20 7 20 20 0 20 7 20 610 20 603
0 610 0 610 20 0 20 7 20 595 20 588 0 595 0 595 20 0 18 7 20 65 20 58 0 65
-2 65 -20z m-1080 -300 c0 -16 7 -20 35 -20 34 0 35 -1 35 -40 0 -29 4 -40 15
-40 12 0 15 -13 15 -55 0 -42 3 -55 15 -55 13 0 15 -32 15 -225 l0 -225 -100
0 -100 0 0 300 c0 260 2 300 15 300 11 0 15 11 15 40 0 33 3 40 20 40 13 0 20
-7 20 -20z m2210 -20 c0 -29 4 -40 15 -40 13 0 15 -40 15 -300 l0 -300 -100 0
-100 0 0 225 c0 193 2 225 15 225 12 0 15 13 15 55 0 42 3 55 15 55 11 0 15
11 15 40 0 39 1 40 35 40 28 0 35 4 35 20 0 13 7 20 20 20 17 0 20 -7 20 -40z
m-3260 -40 c0 -33 -3 -40 -20 -40 -20 0 -20 -7 -20 -280 0 -273 0 -280 20
-280 17 0 20 -7 20 -40 l0 -40 -55 0 c-48 0 -55 2 -55 20 0 13 7 20 20 20 17
0 20 7 20 40 0 33 -3 40 -20 40 -19 0 -20 7 -20 225 0 218 1 225 20 225 16 0
20 7 20 35 0 24 5 35 15 35 11 0 15 11 15 40 0 33 3 40 20 40 17 0 20 -7 20
-40z m160 0 c0 -33 3 -40 20 -40 18 0 20 -7 20 -75 0 -60 3 -75 15 -75 13 0
15 -23 15 -150 0 -143 1 -150 20 -150 18 0 20 -7 20 -75 l0 -75 -35 0 c-28 0
-35 -4 -35 -20 0 -16 -7 -20 -35 -20 -28 0 -35 4 -35 20 0 11 -7 20 -15 20
-12 0 -15 19 -15 115 0 108 -1 115 -20 115 -19 0 -20 7 -20 150 0 143 1 150
20 150 18 0 20 7 20 55 0 42 3 55 15 55 8 0 15 9 15 20 0 11 7 20 15 20 11 0
15 -11 15 -40z m720 -15 c0 -48 -2 -55 -20 -55 -19 0 -20 -7 -20 -265 l0 -265
-30 0 -30 0 0 245 c0 211 2 245 15 245 10 0 15 11 15 35 0 24 5 35 15 35 11 0
15 11 15 40 0 33 3 40 20 40 18 0 20 -7 20 -55z m1360 35 c0 -11 7 -20 15 -20
8 0 15 -9 15 -20 0 -11 7 -20 15 -20 8 0 15 -7 15 -15 0 -8 9 -15 20 -15 17 0
20 -7 20 -40 0 -29 4 -40 15 -40 12 0 15 -17 15 -95 0 -88 1 -95 20 -95 19 0
20 -7 20 -150 l0 -150 -290 0 -290 0 0 190 c0 162 2 190 15 190 12 0 15 13 15
55 0 48 2 55 20 55 17 0 20 7 20 40 0 29 4 40 15 40 8 0 15 7 15 15 0 8 9 15
20 15 13 0 20 7 20 20 0 16 7 20 30 20 23 0 30 4 30 20 0 19 7 20 105 20 98 0
105 -1 105 -20z m1190 -20 c0 -29 4 -40 15 -40 10 0 15 -11 15 -35 0 -24 5
-35 15 -35 13 0 15 -34 15 -245 l0 -245 -30 0 -30 0 0 265 c0 258 -1 265 -20
265 -18 0 -20 7 -20 55 0 48 2 55 20 55 17 0 20 -7 20 -40z m710 20 c0 -11 7
-20 15 -20 12 0 15 -13 15 -55 0 -48 2 -55 20 -55 19 0 20 -7 20 -150 0 -143
-1 -150 -20 -150 -19 0 -20 -7 -20 -115 0 -96 -3 -115 -15 -115 -8 0 -15 -9
-15 -20 0 -16 -7 -20 -35 -20 -28 0 -35 4 -35 20 0 16 -7 20 -35 20 l-35 0 0
75 c0 68 2 75 20 75 19 0 20 7 20 150 0 127 2 150 15 150 12 0 15 15 15 75 0
60 3 75 15 75 11 0 15 11 15 40 0 33 3 40 20 40 13 0 20 -7 20 -20z m170 -20
c0 -29 4 -40 15 -40 10 0 15 -11 15 -35 0 -28 4 -35 20 -35 19 0 20 -7 20
-225 0 -218 -1 -225 -20 -225 -17 0 -20 -7 -20 -40 0 -33 3 -40 20 -40 13 0
20 -7 20 -20 0 -18 -7 -20 -55 -20 l-55 0 0 60 c0 53 2 60 20 60 19 0 20 7 20
260 0 253 -1 260 -20 260 -17 0 -20 7 -20 40 0 33 3 40 20 40 17 0 20 -7 20
-40z m-1160 -845 c0 -13 37 -15 275 -15 268 0 275 0 275 -20 0 -19 7 -20 255
-20 248 0 255 -1 255 -20 0 -19 7 -20 200 -20 193 0 200 -1 200 -20 0 -19 7
-20 120 -20 100 0 120 -2 120 -15 0 -12 18 -15 105 -15 98 0 105 -1 105 -20 0
-19 7 -20 100 -20 93 0 100 -1 100 -20 0 -18 7 -20 70 -20 l70 0 0 -55 c0 -48
-2 -55 -20 -55 -13 0 -20 -7 -20 -20 0 -18 -7 -20 -85 -20 -78 0 -85 2 -85 20
0 19 -7 20 -185 20 -178 0 -185 1 -185 20 0 19 -7 20 -155 20 -131 0 -155 2
-155 15 0 13 -22 15 -135 15 -128 0 -135 1 -135 20 0 19 -7 20 -170 20 -163 0
-170 1 -170 20 0 19 -7 20 -255 20 -248 0 -255 1 -255 20 0 19 -7 20 -235 20
-202 0 -235 2 -235 15 0 13 -47 15 -360 15 -313 0 -360 -2 -360 -15 0 -13 -27
-15 -185 -15 -158 0 -185 2 -185 15 0 13 -31 15 -220 15 -189 0 -220 -2 -220
-15 0 -13 -35 -15 -255 -15 -248 0 -255 -1 -255 -20 0 -19 -7 -20 -255 -20
-248 0 -255 -1 -255 -20 0 -19 -7 -20 -170 -20 -163 0 -170 -1 -170 -20 0 -19
-7 -20 -135 -20 -113 0 -135 -2 -135 -15 0 -13 -24 -15 -155 -15 -148 0 -155
-1 -155 -20 0 -19 -7 -20 -185 -20 -178 0 -185 -1 -185 -20 0 -18 -7 -20 -85
-20 -78 0 -85 2 -85 20 0 13 -7 20 -20 20 -18 0 -20 7 -20 55 l0 55 70 0 c63
0 70 2 70 20 0 19 7 20 100 20 93 0 100 1 100 20 0 19 7 20 105 20 87 0 105 3
105 15 0 13 20 15 120 15 113 0 120 1 120 20 0 19 7 20 200 20 193 0 200 1
200 20 0 19 7 20 255 20 248 0 255 1 255 20 0 20 7 20 275 20 238 0 275 2 275
15 0 13 119 15 1015 15 896 0 1015 -2 1015 -15z m-1350 -335 c0 -20 7 -20 320
-20 313 0 320 0 320 20 0 20 7 20 290 20 283 0 290 0 290 -20 0 -20 7 -20 355
-20 348 0 355 0 355 -20 0 -19 7 -20 220 -20 213 0 220 -1 220 -20 0 -19 7
-20 105 -20 87 0 105 -3 105 -15 0 -12 16 -15 85 -15 78 0 85 -2 85 -20 0 -19
7 -20 100 -20 93 0 100 -1 100 -20 0 -19 7 -20 100 -20 93 0 100 -1 100 -20 0
-18 7 -20 85 -20 69 0 85 -3 85 -15 0 -12 13 -15 55 -15 l55 0 0 -40 c0 -33
-3 -40 -20 -40 -19 0 -20 -7 -20 -110 0 -91 -3 -110 -15 -110 -13 0 -15 -28
-15 -190 0 -183 -1 -190 -20 -190 -20 0 -20 -7 -20 -410 0 -358 -2 -410 -15
-410 -13 0 -15 -38 -15 -285 0 -247 -2 -285 -15 -285 -8 0 -15 9 -15 20 0 20
-7 20 -275 20 -268 0 -275 0 -275 20 0 20 -7 20 -1050 20 -1043 0 -1050 0
-1050 -20 0 -19 -7 -20 -255 -20 -248 0 -255 1 -255 20 0 20 -7 20 -1070 20
-1063 0 -1070 0 -1070 -20 0 -20 -7 -20 -275 -20 -268 0 -275 0 -275 -20 0
-11 -7 -20 -15 -20 -13 0 -15 38 -15 285 0 247 -2 285 -15 285 -13 0 -15 52
-15 410 0 403 0 410 -20 410 -19 0 -20 7 -20 190 0 162 -2 190 -15 190 -12 0
-15 19 -15 110 0 103 -1 110 -20 110 -17 0 -20 7 -20 40 l0 40 55 0 c42 0 55
3 55 15 0 12 16 15 85 15 78 0 85 2 85 20 0 19 7 20 100 20 93 0 100 1 100 20
0 19 7 20 100 20 93 0 100 1 100 20 0 18 7 20 85 20 69 0 85 3 85 15 0 12 18
15 105 15 98 0 105 1 105 20 0 19 7 20 220 20 213 0 220 1 220 20 0 20 7 20
355 20 348 0 355 0 355 20 0 20 7 20 275 20 268 0 275 0 275 -20z m2640 -2550
c0 -20 7 -20 395 -20 388 0 395 0 395 -20 0 -19 7 -20 200 -20 193 0 200 -1
200 -20 0 -18 7 -20 55 -20 l55 0 0 -35 c0 -24 5 -35 15 -35 8 0 15 -9 15 -20
0 -19 -7 -20 -120 -20 -113 0 -120 1 -120 20 0 20 -7 20 -1155 20 -1148 0
-1155 0 -1155 -20 0 -11 -7 -20 -15 -20 -8 0 -15 9 -15 20 0 20 -7 20 -510 20
-503 0 -510 0 -510 -20 0 -20 -7 -20 -560 -20 -553 0 -560 0 -560 20 0 20 -7
20 -1155 20 -1148 0 -1155 0 -1155 -20 0 -19 -7 -20 -120 -20 -113 0 -120 1
-120 20 0 11 7 20 15 20 10 0 15 11 15 35 l0 35 55 0 c48 0 55 2 55 20 0 19 7
20 200 20 193 0 200 1 200 20 0 20 7 20 395 20 388 0 395 0 395 20 0 20 7 20
2305 20 2298 0 2305 0 2305 -20z m-3320 -340 c0 -20 7 -20 285 -20 278 0 285
0 285 -20 0 -20 7 -20 360 -20 353 0 360 0 360 20 0 20 7 20 390 20 383 0 390
0 390 20 0 19 7 20 185 20 178 0 185 -1 185 -20 0 -20 7 -20 1090 -20 1083 0
1090 0 1090 -20 0 -13 -7 -20 -20 -20 -16 0 -20 -7 -20 -35 0 -24 -5 -35 -15
-35 -11 0 -15 -11 -15 -40 0 -33 -3 -40 -20 -40 -11 0 -20 -7 -20 -15 0 -8 -7
-15 -15 -15 -11 0 -15 -11 -15 -40 0 -29 -4 -40 -15 -40 -8 0 -15 -9 -15 -20
0 -13 -7 -20 -20 -20 -11 0 -20 -7 -20 -15 0 -8 -7 -15 -15 -15 -8 0 -15 -9
-15 -20 0 -13 -7 -20 -20 -20 -13 0 -20 -7 -20 -20 0 -16 -7 -20 -30 -20 -23
0 -30 -4 -30 -20 0 -16 -7 -20 -35 -20 -24 0 -35 -5 -35 -15 0 -13 -48 -15
-375 -15 -327 0 -375 2 -375 15 0 13 -27 15 -185 15 -178 0 -185 1 -185 20 0
19 -7 20 -220 20 -213 0 -220 1 -220 20 0 20 -7 20 -630 20 -623 0 -630 0
-630 -20 0 -20 -7 -20 -800 -20 -793 0 -800 0 -800 20 0 19 -7 20 -205 20
-198 0 -205 -1 -205 -20 0 -19 -7 -20 -220 -20 -213 0 -220 -1 -220 -20 0 -19
-7 -20 -185 -20 -158 0 -185 -2 -185 -15 0 -13 -48 -15 -375 -15 -327 0 -375
2 -375 15 0 10 -11 15 -35 15 -28 0 -35 4 -35 20 0 16 -7 20 -30 20 -23 0 -30
4 -30 20 0 13 -7 20 -20 20 -13 0 -20 7 -20 20 0 11 -7 20 -15 20 -8 0 -15 7
-15 15 0 8 -9 15 -20 15 -13 0 -20 7 -20 20 0 11 -7 20 -15 20 -11 0 -15 11
-15 40 0 29 -4 40 -15 40 -8 0 -15 7 -15 15 0 8 -9 15 -20 15 -17 0 -20 7 -20
40 0 29 -4 40 -15 40 -10 0 -15 11 -15 35 0 28 -4 35 -20 35 -13 0 -20 7 -20
20 0 20 7 20 1090 20 1083 0 1090 0 1090 20 0 19 7 20 205 20 198 0 205 -1
205 -20z m2370 -710 c0 -20 7 -20 305 -20 298 0 305 0 305 -20 0 -20 7 -20
565 -20 l565 0 0 -1670 c0 -1663 0 -1670 -20 -1670 -20 0 -20 -7 -20 -390 0
-383 0 -390 20 -390 18 0 20 -7 20 -75 0 -68 -2 -75 -20 -75 -19 0 -20 -7 -20
-135 0 -113 -2 -135 -15 -135 -10 0 -15 -11 -15 -35 0 -28 -4 -35 -20 -35 -17
0 -20 -7 -20 -40 0 -29 -4 -40 -15 -40 -8 0 -15 -9 -15 -20 0 -11 -7 -20 -15
-20 -8 0 -15 -7 -15 -15 0 -8 -9 -15 -20 -15 -13 0 -20 -7 -20 -20 0 -11 -7
-20 -15 -20 -8 0 -15 -9 -15 -20 0 -13 -7 -20 -20 -20 -13 0 -20 -7 -20 -20 0
-16 -7 -20 -30 -20 -20 0 -30 -5 -30 -15 0 -10 -11 -15 -35 -15 -28 0 -35 -4
-35 -20 0 -16 -7 -20 -35 -20 -28 0 -35 -4 -35 -20 0 -17 -7 -20 -50 -20 -43
0 -50 -3 -50 -20 0 -17 -7 -20 -50 -20 -38 0 -50 -4 -50 -15 0 -12 -14 -15
-70 -15 -63 0 -70 -2 -70 -20 0 -17 -7 -20 -50 -20 -43 0 -50 -3 -50 -20 0
-18 -7 -20 -70 -20 -63 0 -70 -2 -70 -20 0 -18 -7 -20 -65 -20 -51 0 -65 -3
-65 -15 0 -12 -16 -15 -85 -15 -78 0 -85 -2 -85 -20 0 -19 -7 -20 -105 -20
-98 0 -105 -1 -105 -20 0 -19 -7 -20 -170 -20 -163 0 -170 -1 -170 -20 0 -20
-7 -20 -305 -20 -264 0 -305 -2 -305 -15 0 -13 -31 -15 -220 -15 -213 0 -220
-1 -220 -20 0 -19 -7 -20 -185 -20 -178 0 -185 1 -185 20 0 19 -7 20 -170 20
-144 0 -170 2 -170 15 0 13 -41 15 -305 15 -298 0 -305 0 -305 20 0 19 -7 20
-170 20 -163 0 -170 1 -170 20 0 19 -7 20 -105 20 -98 0 -105 1 -105 20 0 18
-7 20 -85 20 -69 0 -85 3 -85 15 0 12 -14 15 -65 15 -58 0 -65 2 -65 20 0 18
-7 20 -70 20 -63 0 -70 2 -70 20 0 17 -7 20 -50 20 -43 0 -50 3 -50 20 0 18
-7 20 -70 20 -56 0 -70 3 -70 15 0 11 -12 15 -50 15 -43 0 -50 3 -50 20 0 17
-7 20 -50 20 -43 0 -50 3 -50 20 0 16 -7 20 -35 20 -28 0 -35 4 -35 20 0 16
-7 20 -35 20 -24 0 -35 5 -35 15 0 10 -10 15 -30 15 -23 0 -30 4 -30 20 0 13
-7 20 -20 20 -13 0 -20 7 -20 20 0 11 -7 20 -15 20 -8 0 -15 9 -15 20 0 13 -7
20 -20 20 -11 0 -20 7 -20 15 0 8 -7 15 -15 15 -8 0 -15 9 -15 20 0 11 -7 20
-15 20 -11 0 -15 11 -15 40 0 33 -3 40 -20 40 -16 0 -20 7 -20 35 0 24 -5 35
-15 35 -13 0 -15 22 -15 135 0 128 -1 135 -20 135 -18 0 -20 7 -20 75 0 68 2
75 20 75 20 0 20 7 20 375 0 368 0 375 -20 375 -20 0 -20 7 -20 1685 l0 1685
560 0 c553 0 560 0 560 20 0 20 7 20 310 20 303 0 310 0 310 20 0 20 7 20
1355 20 1348 0 1355 0 1355 -20z"/>
<path d="M8980 9675 c0 -8 -9 -15 -20 -15 -13 0 -20 -7 -20 -20 0 -16 -7 -20
-30 -20 -23 0 -30 -4 -30 -20 0 -13 -7 -20 -20 -20 -16 0 -20 -7 -20 -35 0
-24 -5 -35 -15 -35 -8 0 -15 -9 -15 -20 0 -13 -7 -20 -20 -20 -17 0 -20 -7
-20 -40 0 -29 -4 -40 -15 -40 -12 0 -15 -13 -15 -55 0 -42 -3 -55 -15 -55 -12
0 -15 -15 -15 -75 0 -68 -2 -75 -20 -75 -19 0 -20 -7 -20 -260 0 -224 -2 -260
-15 -260 -13 0 -15 -23 -15 -150 0 -127 2 -150 15 -150 12 0 15 -13 15 -60 0
-53 2 -60 20 -60 11 0 20 -7 20 -15 0 -13 44 -15 340 -15 296 0 340 2 340 15
0 12 14 15 65 15 58 0 65 2 65 20 0 13 7 20 20 20 18 0 20 7 20 55 0 42 3 55
15 55 13 0 15 34 15 245 0 211 2 245 15 245 8 0 15 9 15 20 0 11 -7 20 -15 20
-13 0 -15 27 -15 185 0 158 -2 185 -15 185 -12 0 -15 13 -15 60 0 53 -2 60
-20 60 -16 0 -20 7 -20 35 0 24 -5 35 -15 35 -11 0 -15 11 -15 40 0 33 -3 40
-20 40 -11 0 -20 7 -20 15 0 8 -7 15 -15 15 -8 0 -15 9 -15 20 0 11 -7 20 -15
20 -8 0 -15 9 -15 20 0 13 -7 20 -20 20 -13 0 -20 7 -20 20 0 16 -7 20 -35 20
-24 0 -35 5 -35 15 0 13 -23 15 -150 15 -127 0 -150 -2 -150 -15z m240 -115
c0 -16 7 -20 30 -20 20 0 30 -5 30 -15 0 -8 9 -15 20 -15 13 0 20 -7 20 -20 0
-11 7 -20 15 -20 8 0 15 -9 15 -20 0 -13 7 -20 20 -20 16 0 20 -7 20 -35 0
-24 5 -35 15 -35 12 0 15 -13 15 -60 0 -47 3 -60 15 -60 13 0 15 -57 15 -450
l0 -450 -170 0 c-144 0 -170 -2 -170 -15 0 -10 -10 -15 -30 -15 l-30 0 0 450
c0 393 2 450 15 450 12 0 15 15 15 75 0 60 3 75 15 75 12 0 15 13 15 55 0 48
2 55 20 55 16 0 20 7 20 35 0 24 5 35 15 35 8 0 15 9 15 20 0 13 7 20 20 20
13 0 20 -7 20 -20z m-170 -35 c0 -8 -9 -15 -20 -15 -17 0 -20 -7 -20 -40 0
-29 -4 -40 -15 -40 -12 0 -15 -13 -15 -55 0 -48 -2 -55 -20 -55 -19 0 -20 -7
-20 -115 0 -96 -3 -115 -15 -115 -13 0 -15 -50 -15 -390 l0 -390 -50 0 -50 0
0 35 c0 28 -4 35 -20 35 -20 0 -20 7 -20 280 0 273 0 280 20 280 19 0 20 7 20
135 0 113 2 135 15 135 12 0 15 13 15 55 0 48 2 55 20 55 16 0 20 7 20 35 0
24 5 35 15 35 11 0 15 11 15 40 0 29 4 40 15 40 8 0 15 9 15 20 0 16 7 20 35
20 24 0 35 5 35 15 0 8 9 15 20 15 11 0 20 -7 20 -15z"/>
<path d="M10340 9675 c0 -11 -12 -15 -50 -15 -43 0 -50 -3 -50 -20 0 -16 -7
-20 -35 -20 -28 0 -35 -4 -35 -20 0 -16 -7 -20 -35 -20 -28 0 -35 -4 -35 -20
0 -11 -7 -20 -15 -20 -8 0 -15 -7 -15 -15 0 -8 -9 -15 -20 -15 -13 0 -20 -7
-20 -20 0 -11 -7 -20 -15 -20 -8 0 -15 -9 -15 -20 0 -13 -7 -20 -20 -20 -16 0
-20 -7 -20 -35 0 -24 -5 -35 -15 -35 -8 0 -15 -9 -15 -20 0 -11 -7 -20 -15
-20 -12 0 -15 -13 -15 -55 0 -48 -2 -55 -20 -55 -18 0 -20 -7 -20 -60 0 -47
-3 -60 -15 -60 -12 0 -15 -17 -15 -90 0 -83 -1 -90 -20 -90 -19 0 -20 -7 -20
-210 0 -203 1 -210 20 -210 19 0 20 -7 20 -90 0 -73 3 -90 15 -90 11 0 15 -11
15 -40 0 -33 3 -40 20 -40 13 0 20 -7 20 -20 0 -11 7 -20 15 -20 8 0 15 -7 15
-15 0 -12 14 -15 70 -15 63 0 70 -2 70 -20 0 -19 7 -20 115 -20 108 0 115 1
115 20 0 19 7 20 220 20 189 0 220 2 220 15 0 12 18 15 105 15 l105 0 0 40 c0
29 4 40 15 40 10 0 15 11 15 35 0 28 4 35 20 35 19 0 20 7 20 210 0 203 -1
210 -20 210 -19 0 -20 7 -20 205 0 176 -2 205 -15 205 -12 0 -15 15 -15 75 0
68 -2 75 -20 75 -16 0 -20 7 -20 35 0 24 -5 35 -15 35 -11 0 -15 11 -15 40 0
29 -4 40 -15 40 -8 0 -15 9 -15 20 0 13 -7 20 -20 20 -11 0 -20 7 -20 15 0 8
-7 15 -15 15 -8 0 -15 9 -15 20 0 16 -7 20 -35 20 -28 0 -35 4 -35 20 0 16 -7
20 -35 20 -28 0 -35 4 -35 20 0 17 -7 20 -50 20 -38 0 -50 4 -50 15 0 12 -18
15 -100 15 -82 0 -100 -3 -100 -15z m170 -150 c0 -11 12 -15 50 -15 43 0 50
-3 50 -20 0 -11 7 -20 15 -20 8 0 15 -9 15 -20 0 -16 7 -20 35 -20 33 0 35 -2
35 -35 0 -24 5 -35 15 -35 8 0 15 -9 15 -20 0 -13 7 -20 20 -20 18 0 20 -7 20
-55 0 -42 3 -55 15 -55 12 0 15 -17 15 -95 0 -88 1 -95 20 -95 20 0 20 -7 20
-320 0 -313 0 -320 -20 -320 -13 0 -20 -7 -20 -20 0 -19 -7 -20 -135 -20 -113
0 -135 -2 -135 -15 0 -13 -37 -15 -270 -15 -233 0 -270 2 -270 15 0 8 -9 15
-20 15 -20 0 -20 7 -20 300 0 293 0 300 20 300 19 0 20 7 20 95 0 78 3 95 15
95 11 0 15 11 15 40 0 33 3 40 20 40 16 0 20 7 20 35 0 24 5 35 15 35 11 0 15
11 15 40 0 29 4 40 15 40 8 0 15 7 15 15 0 8 9 15 20 15 13 0 20 7 20 20 0 16
7 20 35 20 28 0 35 4 35 20 0 11 7 20 15 20 8 0 15 9 15 20 0 17 7 20 50 20
38 0 50 4 50 15 0 12 14 15 70 15 56 0 70 -3 70 -15z"/>
<path d="M11530 9675 c0 -10 -11 -15 -35 -15 -28 0 -35 -4 -35 -20 0 -13 -7
-20 -20 -20 -13 0 -20 -7 -20 -20 0 -11 -7 -20 -15 -20 -8 0 -15 -9 -15 -20 0
-11 -7 -20 -15 -20 -8 0 -15 -7 -15 -15 0 -8 -9 -15 -20 -15 -17 0 -20 -7 -20
-40 0 -29 -4 -40 -15 -40 -10 0 -15 -11 -15 -35 0 -28 -4 -35 -20 -35 -18 0
-20 -7 -20 -60 0 -47 -3 -60 -15 -60 -13 0 -15 -25 -15 -165 0 -140 -2 -165
-15 -165 -11 0 -15 -11 -15 -40 0 -29 4 -40 15 -40 13 0 15 -34 15 -245 0
-211 2 -245 15 -245 12 0 15 -13 15 -55 0 -48 2 -55 20 -55 13 0 20 -7 20 -20
0 -18 7 -20 65 -20 51 0 65 -3 65 -15 0 -13 44 -15 340 -15 296 0 340 2 340
15 0 8 9 15 20 15 18 0 20 7 20 60 0 47 3 60 15 60 13 0 15 23 15 150 0 127
-2 150 -15 150 -13 0 -15 36 -15 260 0 253 -1 260 -20 260 -18 0 -20 7 -20 75
0 60 -3 75 -15 75 -12 0 -15 13 -15 55 0 42 -3 55 -15 55 -11 0 -15 11 -15 40
0 33 -3 40 -20 40 -13 0 -20 7 -20 20 0 11 -7 20 -15 20 -10 0 -15 11 -15 35
0 28 -4 35 -20 35 -13 0 -20 7 -20 20 0 16 -7 20 -30 20 -23 0 -30 4 -30 20 0
13 -7 20 -20 20 -11 0 -20 7 -20 15 0 13 -23 15 -150 15 -127 0 -150 -2 -150
-15z m100 -130 c0 -24 5 -35 15 -35 8 0 15 -9 15 -20 0 -13 7 -20 20 -20 18 0
20 -7 20 -55 0 -42 3 -55 15 -55 12 0 15 -15 15 -75 0 -60 3 -75 15 -75 13 0
15 -57 15 -450 l0 -450 -30 0 c-20 0 -30 5 -30 15 0 13 -26 15 -170 15 l-170
0 0 450 c0 393 2 450 15 450 12 0 15 13 15 60 0 47 3 60 15 60 10 0 15 11 15
35 0 28 4 35 20 35 13 0 20 7 20 20 0 11 7 20 15 20 8 0 15 9 15 20 0 13 7 20
20 20 11 0 20 7 20 15 0 10 10 15 30 15 23 0 30 4 30 20 0 13 7 20 20 20 16 0
20 -7 20 -35z m170 -20 c0 -10 11 -15 35 -15 28 0 35 -4 35 -20 0 -11 7 -20
15 -20 11 0 15 -11 15 -40 0 -29 4 -40 15 -40 10 0 15 -11 15 -35 0 -28 4 -35
20 -35 18 0 20 -7 20 -55 0 -42 3 -55 15 -55 13 0 15 -22 15 -135 0 -128 1
-135 20 -135 20 0 20 -7 20 -280 0 -273 0 -280 -20 -280 -16 0 -20 -7 -20 -35
l0 -35 -50 0 -50 0 0 390 c0 340 -2 390 -15 390 -12 0 -15 19 -15 115 0 108
-1 115 -20 115 -18 0 -20 7 -20 55 0 42 -3 55 -15 55 -11 0 -15 11 -15 40 0
33 -3 40 -20 40 -11 0 -20 7 -20 15 0 8 9 15 20 15 11 0 20 -7 20 -15z"/>
<path d="M8160 9525 c0 -10 -10 -15 -30 -15 -23 0 -30 -4 -30 -20 0 -13 -7
-20 -20 -20 -13 0 -20 -7 -20 -20 0 -11 -7 -20 -15 -20 -10 0 -15 -11 -15 -35
0 -28 -4 -35 -20 -35 -17 0 -20 -7 -20 -40 0 -29 -4 -40 -15 -40 -12 0 -15
-15 -15 -75 0 -60 -3 -75 -15 -75 -13 0 -15 -59 -15 -470 0 -411 2 -470 15
-470 8 0 15 -7 15 -15 0 -8 7 -15 15 -15 8 0 15 -9 15 -20 0 -19 7 -20 120
-20 113 0 120 1 120 20 0 19 7 20 100 20 82 0 100 3 100 15 0 10 11 15 35 15
28 0 35 4 35 20 0 13 7 20 20 20 13 0 20 7 20 20 0 11 7 20 15 20 13 0 15 57
15 450 0 393 -2 450 -15 450 -12 0 -15 15 -15 75 0 68 -2 75 -20 75 -18 0 -20
7 -20 55 0 42 -3 55 -15 55 -8 0 -15 9 -15 20 0 13 -7 20 -20 20 -13 0 -20 7
-20 20 0 16 -7 20 -30 20 -20 0 -30 5 -30 15 0 12 -18 15 -105 15 -87 0 -105
-3 -105 -15z m170 -130 c0 -24 -5 -35 -15 -35 -11 0 -15 -11 -15 -40 0 -29 -4
-40 -15 -40 -12 0 -15 -13 -15 -55 0 -48 -2 -55 -20 -55 -19 0 -20 -7 -20
-150 0 -127 -2 -150 -15 -150 -12 0 -15 -19 -15 -115 0 -96 3 -115 15 -115 13
0 15 -25 15 -165 l0 -165 -85 0 -85 0 0 430 c0 423 0 430 20 430 18 0 20 7 20
55 0 42 3 55 15 55 11 0 15 11 15 40 0 29 4 40 15 40 8 0 15 7 15 15 0 8 9 15
20 15 13 0 20 7 20 20 0 18 7 20 65 20 l65 0 0 -35z m70 -170 c0 -8 7 -15 15
-15 13 0 15 -55 15 -435 0 -380 -2 -435 -15 -435 -8 0 -15 -7 -15 -15 0 -8 -7
-15 -15 -15 -10 0 -15 11 -15 35 0 28 -4 35 -20 35 -20 0 -20 7 -20 355 0 348
0 355 20 355 18 0 20 7 20 75 0 60 3 75 15 75 8 0 15 -7 15 -15z"/>
<path d="M12440 9525 c0 -10 -11 -15 -35 -15 -28 0 -35 -4 -35 -20 0 -11 -7
-20 -15 -20 -8 0 -15 -9 -15 -20 0 -11 -7 -20 -15 -20 -12 0 -15 -13 -15 -55
0 -48 -2 -55 -20 -55 -18 0 -20 -7 -20 -75 0 -60 -3 -75 -15 -75 -13 0 -15
-57 -15 -450 0 -393 2 -450 15 -450 8 0 15 -9 15 -20 0 -13 7 -20 20 -20 13 0
20 -7 20 -20 0 -16 7 -20 30 -20 20 0 30 -5 30 -15 0 -12 18 -15 105 -15 98 0
105 -1 105 -20 0 -19 7 -20 120 -20 113 0 120 1 120 20 0 11 7 20 15 20 8 0
15 7 15 15 0 8 7 15 15 15 13 0 15 59 15 470 0 411 -2 470 -15 470 -12 0 -15
15 -15 75 0 60 -3 75 -15 75 -11 0 -15 11 -15 40 0 33 -3 40 -20 40 -16 0 -20
7 -20 35 0 24 -5 35 -15 35 -8 0 -15 9 -15 20 0 13 -7 20 -20 20 -13 0 -20 7
-20 20 0 16 -7 20 -30 20 -20 0 -30 5 -30 15 0 12 -18 15 -105 15 -87 0 -105
-3 -105 -15z m170 -115 c0 -13 7 -20 20 -20 11 0 20 -7 20 -15 0 -8 7 -15 15
-15 11 0 15 -11 15 -40 0 -29 4 -40 15 -40 12 0 15 -13 15 -55 0 -48 2 -55 20
-55 20 0 20 -7 20 -430 l0 -430 -85 0 -85 0 0 185 c0 158 2 185 15 185 12 0
15 17 15 95 0 78 -3 95 -15 95 -13 0 -15 23 -15 150 0 143 -1 150 -20 150 -18
0 -20 7 -20 55 0 42 -3 55 -15 55 -11 0 -15 11 -15 40 0 29 -4 40 -15 40 -10
0 -15 11 -15 35 l0 35 65 0 c58 0 65 -2 65 -20z m-170 -245 c0 -68 2 -75 20
-75 20 0 20 -7 20 -335 0 -328 0 -335 -20 -335 -18 0 -20 -7 -20 -55 0 -42 -3
-55 -15 -55 -8 0 -15 7 -15 15 0 8 -9 15 -20 15 -20 0 -20 7 -20 450 l0 450
35 0 35 0 0 -75z"/>
<path d="M7650 9340 c0 -16 -7 -20 -30 -20 -28 0 -30 -2 -30 -40 0 -33 -3 -40
-20 -40 -19 0 -20 -7 -20 -150 0 -127 -2 -150 -15 -150 -13 0 -15 -32 -15
-225 0 -193 2 -225 15 -225 13 0 15 -25 15 -165 l0 -165 50 0 c43 0 50 -3 50
-20 0 -18 7 -20 70 -20 63 0 70 2 70 20 0 11 7 20 15 20 8 0 15 7 15 15 0 8 9
15 20 15 20 0 20 7 20 510 0 503 0 510 -20 510 -16 0 -20 7 -20 35 0 24 -5 35
-15 35 -11 0 -15 11 -15 40 l0 40 -70 0 c-63 0 -70 -2 -70 -20z m70 -190 c0
-53 2 -60 20 -60 20 0 20 -7 20 -315 0 -308 0 -315 -20 -315 -19 0 -20 -7 -20
-95 0 -78 -3 -95 -15 -95 -12 0 -15 19 -15 110 0 103 -1 110 -20 110 -20 0
-20 7 -20 320 0 313 0 320 20 320 17 0 20 7 20 40 0 29 4 40 15 40 12 0 15
-13 15 -60z"/>
<path d="M13020 9340 c0 -11 -7 -20 -15 -20 -12 0 -15 -13 -15 -55 0 -48 -2
-55 -20 -55 -20 0 -20 -7 -20 -510 0 -503 0 -510 20 -510 11 0 20 -7 20 -15 0
-8 7 -15 15 -15 8 0 15 -9 15 -20 0 -18 7 -20 70 -20 63 0 70 2 70 20 0 17 7
20 50 20 l50 0 0 165 c0 140 2 165 15 165 13 0 15 30 15 210 0 180 -2 210 -15
210 -13 0 -15 25 -15 165 0 158 -1 165 -20 165 -17 0 -20 7 -20 40 0 38 -2 40
-30 40 -23 0 -30 4 -30 20 0 18 -7 20 -70 20 -63 0 -70 -2 -70 -20z m100 -170
c0 -33 3 -40 20 -40 20 0 20 -7 20 -320 0 -313 0 -320 -20 -320 -19 0 -20 -7
-20 -110 0 -91 -3 -110 -15 -110 -12 0 -15 15 -15 75 0 68 -2 75 -20 75 -20 0
-20 7 -20 335 0 328 0 335 20 335 18 0 20 7 20 60 0 47 3 60 15 60 11 0 15
-11 15 -40z"/>
<path d="M9280 5960 c0 -16 -7 -20 -30 -20 -20 0 -30 -5 -30 -15 0 -8 -9 -15
-20 -15 -13 0 -20 -7 -20 -20 0 -11 -7 -20 -15 -20 -8 0 -15 -9 -15 -20 0 -13
-7 -20 -20 -20 -16 0 -20 -7 -20 -35 0 -24 -5 -35 -15 -35 -12 0 -15 -13 -15
-60 0 -47 -3 -60 -15 -60 -13 0 -15 -33 -15 -240 0 -207 2 -240 15 -240 8 0
15 -9 15 -20 0 -11 7 -20 15 -20 8 0 15 -9 15 -20 0 -19 7 -20 190 -20 183 0
190 1 190 20 0 17 7 20 50 20 43 0 50 3 50 20 0 11 7 20 15 20 12 0 15 13 15
55 0 48 2 55 20 55 19 0 20 7 20 205 0 198 -1 205 -20 205 -18 0 -20 7 -20 55
0 42 -3 55 -15 55 -11 0 -15 11 -15 40 0 29 -4 40 -15 40 -8 0 -15 9 -15 20 0
16 -7 20 -35 20 -24 0 -35 5 -35 15 0 8 -9 15 -20 15 -13 0 -20 7 -20 20 0 18
-7 20 -85 20 -78 0 -85 -2 -85 -20z m140 -150 c0 -11 7 -20 15 -20 8 0 15 -7
15 -15 0 -8 9 -15 20 -15 17 0 20 -7 20 -40 0 -29 4 -40 15 -40 13 0 15 -29
15 -205 0 -176 -2 -205 -15 -205 -8 0 -15 -9 -15 -20 0 -19 -7 -20 -155 -20
l-155 0 0 205 c0 198 1 205 20 205 17 0 20 7 20 40 0 29 4 40 15 40 10 0 15
11 15 35 0 24 5 35 15 35 8 0 15 9 15 20 0 18 7 20 70 20 63 0 70 -2 70 -20z"/>
<path d="M11360 5960 c0 -13 -7 -20 -20 -20 -11 0 -20 -7 -20 -15 0 -10 -11
-15 -35 -15 -28 0 -35 -4 -35 -20 0 -11 -7 -20 -15 -20 -11 0 -15 -11 -15 -40
0 -29 -4 -40 -15 -40 -12 0 -15 -13 -15 -55 0 -48 -2 -55 -20 -55 -19 0 -20
-7 -20 -205 0 -198 1 -205 20 -205 18 0 20 -7 20 -55 0 -42 3 -55 15 -55 8 0
15 -9 15 -20 0 -17 7 -20 50 -20 43 0 50 -3 50 -20 0 -19 7 -20 190 -20 183 0
190 1 190 20 0 11 7 20 15 20 8 0 15 9 15 20 0 11 7 20 15 20 13 0 15 33 15
240 0 207 -2 240 -15 240 -12 0 -15 13 -15 60 0 47 -3 60 -15 60 -10 0 -15 11
-15 35 0 28 -4 35 -20 35 -13 0 -20 7 -20 20 0 11 -7 20 -15 20 -8 0 -15 9
-15 20 0 13 -7 20 -20 20 -11 0 -20 7 -20 15 0 10 -10 15 -30 15 -23 0 -30 4
-30 20 0 18 -7 20 -85 20 -78 0 -85 -2 -85 -20z m170 -150 c0 -11 7 -20 15
-20 10 0 15 -11 15 -35 0 -24 5 -35 15 -35 11 0 15 -11 15 -40 0 -33 3 -40 20
-40 19 0 20 -7 20 -205 l0 -205 -155 0 c-148 0 -155 1 -155 20 0 11 -7 20 -15
20 -13 0 -15 29 -15 205 0 176 2 205 15 205 11 0 15 11 15 40 0 33 3 40 20 40
11 0 20 7 20 15 0 8 7 15 15 15 8 0 15 9 15 20 0 18 7 20 70 20 63 0 70 -2 70
-20z"/>
<path d="M7990 5925 c0 -10 -10 -15 -30 -15 -23 0 -30 -4 -30 -20 0 -16 -7
-20 -35 -20 -28 0 -35 -4 -35 -20 0 -13 -7 -20 -20 -20 -16 0 -20 -7 -20 -35
0 -24 -5 -35 -15 -35 -11 0 -15 -11 -15 -40 0 -29 -4 -40 -15 -40 -12 0 -15
-13 -15 -55 0 -48 -2 -55 -20 -55 -19 0 -20 -7 -20 -225 0 -218 1 -225 20
-225 13 0 20 -7 20 -20 0 -17 7 -20 50 -20 43 0 50 -3 50 -20 0 -19 7 -20 185
-20 178 0 185 1 185 20 0 13 7 20 20 20 13 0 20 7 20 20 0 11 7 20 15 20 13 0
15 36 15 260 0 224 -2 260 -15 260 -12 0 -15 13 -15 60 0 53 -2 60 -20 60 -16
0 -20 7 -20 35 0 24 -5 35 -15 35 -8 0 -15 9 -15 20 0 13 -7 20 -20 20 -13 0
-20 7 -20 20 0 16 -7 20 -30 20 -20 0 -30 5 -30 15 0 12 -13 15 -55 15 -42 0
-55 -3 -55 -15z m110 -150 c0 -8 7 -15 15 -15 11 0 15 -11 15 -40 0 -29 4 -40
15 -40 12 0 15 -13 15 -55 0 -48 2 -55 20 -55 19 0 20 -7 20 -170 0 -163 -1
-170 -20 -170 -13 0 -20 -7 -20 -20 0 -19 -7 -20 -135 -20 -128 0 -135 1 -135
20 0 11 -7 20 -15 20 -13 0 -15 29 -15 205 0 176 2 205 15 205 11 0 15 11 15
40 0 33 3 40 20 40 13 0 20 7 20 20 0 11 7 20 15 20 8 0 15 7 15 15 0 12 14
15 70 15 56 0 70 -3 70 -15z"/>
<path d="M12710 5925 c0 -10 -10 -15 -30 -15 -23 0 -30 -4 -30 -20 0 -13 -7
-20 -20 -20 -13 0 -20 -7 -20 -20 0 -11 -7 -20 -15 -20 -10 0 -15 -11 -15 -35
0 -28 -4 -35 -20 -35 -18 0 -20 -7 -20 -60 0 -47 -3 -60 -15 -60 -13 0 -15
-36 -15 -260 0 -224 2 -260 15 -260 8 0 15 -9 15 -20 0 -13 7 -20 20 -20 13 0
20 -7 20 -20 0 -19 7 -20 185 -20 178 0 185 1 185 20 0 17 7 20 50 20 43 0 50
3 50 20 0 13 7 20 20 20 19 0 20 7 20 225 0 218 -1 225 -20 225 -18 0 -20 7
-20 55 0 42 -3 55 -15 55 -11 0 -15 11 -15 40 0 29 -4 40 -15 40 -10 0 -15 11
-15 35 0 28 -4 35 -20 35 -13 0 -20 7 -20 20 0 16 -7 20 -35 20 -28 0 -35 4
-35 20 0 16 -7 20 -30 20 -20 0 -30 5 -30 15 0 12 -13 15 -55 15 -42 0 -55 -3
-55 -15z m140 -150 c0 -8 7 -15 15 -15 8 0 15 -9 15 -20 0 -13 7 -20 20 -20
17 0 20 -7 20 -40 0 -29 4 -40 15 -40 13 0 15 -29 15 -205 0 -176 -2 -205 -15
-205 -8 0 -15 -9 -15 -20 0 -19 -7 -20 -135 -20 -128 0 -135 1 -135 20 0 13
-7 20 -20 20 -19 0 -20 7 -20 170 0 163 1 170 20 170 18 0 20 7 20 75 0 60 3
75 15 75 8 0 15 9 15 20 0 11 7 20 15 20 8 0 15 7 15 15 0 12 14 15 70 15 56
0 70 -3 70 -15z"/>
<path d="M8810 4390 c0 -17 -7 -20 -50 -20 -43 0 -50 -3 -50 -20 0 -16 -7 -20
-35 -20 -28 0 -35 -4 -35 -20 0 -13 -7 -20 -20 -20 -11 0 -20 -7 -20 -15 0 -8
-7 -15 -15 -15 -11 0 -15 -11 -15 -40 0 -29 -4 -40 -15 -40 -10 0 -15 -11 -15
-35 0 -28 -4 -35 -20 -35 -18 0 -20 -7 -20 -60 0 -47 -3 -60 -15 -60 -12 0
-15 -19 -15 -110 0 -103 -1 -110 -20 -110 -19 0 -20 -7 -20 -205 0 -176 -2
-205 -15 -205 -12 0 -15 -17 -15 -95 0 -78 3 -95 15 -95 12 0 15 -13 15 -55
l0 -55 35 0 c28 0 35 -4 35 -20 0 -19 7 -20 255 -20 248 0 255 1 255 20 0 18
7 20 85 20 69 0 85 3 85 15 0 10 11 15 35 15 34 0 35 1 35 40 0 29 4 40 15 40
13 0 15 54 15 430 0 376 -2 430 -15 430 -12 0 -15 15 -15 75 0 60 -3 75 -15
75 -8 0 -15 9 -15 20 0 13 -7 20 -20 20 -16 0 -20 7 -20 35 0 33 -2 35 -35 35
-28 0 -35 4 -35 20 0 16 -7 20 -30 20 -23 0 -30 4 -30 20 0 18 -7 20 -70 20
-63 0 -70 2 -70 20 0 17 -7 20 -50 20 -43 0 -50 -3 -50 -20z m130 -150 c0 -18
7 -20 55 -20 48 0 55 -2 55 -20 0 -11 7 -20 15 -20 8 0 15 -9 15 -20 0 -11 7
-20 15 -20 12 0 15 -13 15 -55 0 -48 2 -55 20 -55 20 0 20 -7 20 -375 0 -368
0 -375 -20 -375 -13 0 -20 -7 -20 -20 0 -11 -7 -20 -15 -20 -8 0 -15 -7 -15
-15 0 -13 -22 -15 -135 -15 -128 0 -135 -1 -135 -20 0 -19 -7 -20 -120 -20
l-120 0 0 35 c0 24 -5 35 -15 35 -13 0 -15 28 -15 190 0 162 2 190 15 190 13
0 15 23 15 150 0 127 2 150 15 150 12 0 15 13 15 55 0 48 2 55 20 55 17 0 20
7 20 40 0 29 4 40 15 40 8 0 15 7 15 15 0 8 9 15 20 15 13 0 20 7 20 20 0 11
7 20 15 20 8 0 15 9 15 20 0 17 7 20 50 20 43 0 50 3 50 20 0 17 7 20 50 20
43 0 50 -3 50 -20z"/>
<path d="M11900 4390 c0 -18 -7 -20 -70 -20 -63 0 -70 -2 -70 -20 0 -16 -7
-20 -30 -20 -23 0 -30 -4 -30 -20 0 -16 -7 -20 -35 -20 -33 0 -35 -2 -35 -35
0 -28 -4 -35 -20 -35 -13 0 -20 -7 -20 -20 0 -11 -7 -20 -15 -20 -12 0 -15
-15 -15 -75 0 -60 -3 -75 -15 -75 -13 0 -15 -54 -15 -430 0 -376 2 -430 15
-430 11 0 15 -11 15 -40 0 -39 1 -40 35 -40 24 0 35 -5 35 -15 0 -12 16 -15
85 -15 78 0 85 -2 85 -20 0 -19 7 -20 255 -20 248 0 255 1 255 20 0 16 7 20
30 20 30 0 30 1 30 55 0 48 2 55 20 55 19 0 20 7 20 95 0 88 -1 95 -20 95 -19
0 -20 7 -20 205 0 176 -2 205 -15 205 -12 0 -15 19 -15 110 0 91 -3 110 -15
110 -12 0 -15 13 -15 60 0 53 -2 60 -20 60 -16 0 -20 7 -20 35 0 24 -5 35 -15
35 -11 0 -15 11 -15 40 0 29 -4 40 -15 40 -8 0 -15 7 -15 15 0 8 -9 15 -20 15
-13 0 -20 7 -20 20 0 16 -7 20 -35 20 -28 0 -35 4 -35 20 0 17 -7 20 -50 20
-43 0 -50 3 -50 20 0 17 -7 20 -50 20 -43 0 -50 -3 -50 -20z m70 -150 c0 -17
7 -20 50 -20 43 0 50 -3 50 -20 0 -11 7 -20 15 -20 8 0 15 -9 15 -20 0 -13 7
-20 20 -20 11 0 20 -7 20 -15 0 -8 7 -15 15 -15 11 0 15 -11 15 -40 0 -33 3
-40 20 -40 18 0 20 -7 20 -75 0 -60 3 -75 15 -75 13 0 15 -23 15 -150 0 -127
2 -150 15 -150 13 0 15 -26 15 -170 0 -144 -2 -170 -15 -170 -10 0 -15 -11
-15 -35 l0 -35 -120 0 c-113 0 -120 1 -120 20 0 19 -7 20 -135 20 -113 0 -135
2 -135 15 0 8 -7 15 -15 15 -8 0 -15 9 -15 20 0 13 -7 20 -20 20 -20 0 -20 7
-20 375 0 368 0 375 20 375 18 0 20 7 20 55 0 42 3 55 15 55 8 0 15 9 15 20 0
11 7 20 15 20 8 0 15 9 15 20 0 18 7 20 55 20 48 0 55 2 55 20 0 17 7 20 50
20 43 0 50 -3 50 -20z"/>
</g>
</svg>
